<svg width="48" height="50" viewBox="0 0 48 50" fill="none" xmlns="http://www.w3.org/2000/svg">
<path d="M0 24.9412C0 11.1665 10.7452 0 24 0C37.2548 0 48 11.1665 48 24.9412C48 38.7158 37.2548 49.8823 24 49.8823C10.7452 49.8823 0 38.7158 0 24.9412Z" fill="#20310A"/>
<path fill-rule="evenodd" clip-rule="evenodd" d="M38.8455 14.7264C38.9434 14.6483 39 14.5329 39 14.4113V14.4113C39 14.1841 38.8065 14 38.5678 14H9.67097C9.30041 14 9 14.2859 9 14.6385V14.6385C9 14.8283 9.08875 15.0083 9.24217 15.1296L23.3293 26.2677C23.6363 26.5104 24.0818 26.5094 24.3876 26.2654L38.8455 14.7264ZM10.3534 18.3917C9.81535 17.9664 9 18.3304 9 18.9961V35.2143C9 35.6482 9.36967 36 9.82569 36H38.1743C38.6303 36 39 35.6482 39 35.2143V18.6804C39 18.0131 38.181 17.6496 37.6437 18.0784L24.4814 28.5833L24.3934 28.6535C24.0876 28.8976 23.6421 28.8986 23.3351 28.6559L23.2468 28.586L10.3534 18.3917Z" fill="white"/>
</svg>
