<svg width="48" height="50" viewBox="0 0 48 50" fill="none" xmlns="http://www.w3.org/2000/svg">
<path fill-rule="evenodd" clip-rule="evenodd" d="M24 0C10.7452 0 0 11.1665 0 24.9412C0 38.7158 10.7452 49.8823 24 49.8823C37.2548 49.8823 48 38.7158 48 24.9412C48 11.1665 37.2548 0 24 0ZM11.5216 20.6574H16.9605V37.6399H11.5216V20.6574ZM17.3188 15.404C17.2835 13.7388 16.1377 12.4706 14.277 12.4706C12.4164 12.4706 11.2 13.7388 11.2 15.404C11.2 17.0346 12.3805 18.3394 14.2064 18.3394H14.2412C16.1377 18.3394 17.3188 17.0346 17.3188 15.404ZM30.3131 20.2586C33.8922 20.2586 36.5754 22.6863 36.5754 27.9026L36.5752 37.6399H31.1365V28.5542C31.1365 26.2721 30.3494 24.7148 28.3805 24.7148C26.8779 24.7148 25.9829 25.7647 25.5898 26.7786C25.446 27.142 25.4107 27.6484 25.4107 28.1559V37.6404H19.9711C19.9711 37.6404 20.0428 22.2514 19.9711 20.6578H25.4107V23.0632C26.1325 21.9069 27.4254 20.2586 30.3131 20.2586Z" fill="#20310A"/>
</svg>
