<svg width="186" height="186" viewBox="0 0 186 186" fill="none" xmlns="http://www.w3.org/2000/svg">
<path d="M167.999 124.969C165.981 124.969 163.996 125.468 162.218 126.422L149.181 133.443L107.348 91.6137C104.253 88.5217 100.238 86.5186 95.9062 85.9058V75.5625H98.8125C107.288 75.5525 115.414 72.1812 121.407 66.188C127.4 60.1949 130.771 52.0693 130.781 43.5938C130.781 42.823 130.475 42.0837 129.93 41.5387C129.385 40.9937 128.646 40.6875 127.875 40.6875H122.062C116.926 40.6931 111.866 41.9376 107.312 44.3155C102.759 46.6934 98.8463 50.1345 95.9062 54.3469V34.875H98.8125C105.747 34.8673 112.396 32.1091 117.299 27.2055C122.203 22.3019 124.961 15.6535 124.969 8.71875C124.969 7.94796 124.663 7.20875 124.118 6.66372C123.573 6.11869 122.833 5.8125 122.062 5.8125H116.25C111.44 5.81884 106.725 7.15148 102.623 9.66387C98.5209 12.1763 95.1913 15.7711 93 20.0531C90.8087 15.7711 87.4791 12.1763 83.3772 9.66387C79.2754 7.15148 74.5601 5.81884 69.75 5.8125H63.9375C63.1667 5.8125 62.4275 6.11869 61.8825 6.66372C61.3374 7.20875 61.0312 7.94796 61.0312 8.71875C61.0389 15.6535 63.7971 22.3019 68.7007 27.2055C73.6043 32.1091 80.2528 34.8673 87.1875 34.875H90.0938V54.3469C87.1537 50.1345 83.241 46.6934 78.6876 44.3155C74.1342 41.9376 69.0744 40.6931 63.9375 40.6875H58.125C57.3542 40.6875 56.615 40.9937 56.07 41.5387C55.5249 42.0837 55.2188 42.823 55.2188 43.5938C55.2287 52.0693 58.6001 60.1949 64.5932 66.188C70.5864 72.1812 78.7119 75.5525 87.1875 75.5625H90.0938V85.8942C85.7555 86.4933 81.7296 88.4864 78.6228 91.573L49.3249 120.699C46.9238 121.858 44.6651 123.29 42.594 124.969H5.8125V130.781H40.6875V174.375H5.8125V180.188H119.691C123.707 180.192 127.635 179.003 130.973 176.77L174.759 147.579C176.937 146.103 178.587 143.97 179.47 141.491C180.353 139.012 180.423 136.317 179.669 133.795C178.915 131.274 177.377 129.059 175.279 127.472C173.18 125.884 170.63 125.008 167.999 124.969ZM122.062 46.5H124.806C124.084 52.8909 121.035 58.7926 116.242 63.0803C111.448 67.3681 105.244 69.7421 98.8125 69.75H96.069C96.7912 63.3591 99.8397 57.4574 104.633 53.1697C109.427 48.8819 115.631 46.5079 122.062 46.5ZM116.25 11.625H118.95C118.245 16.4644 115.822 20.8888 112.125 24.0902C108.428 27.2915 103.703 29.0564 98.8125 29.0625H96.1126C96.8178 24.2231 99.2401 19.7987 102.937 16.5973C106.634 13.396 111.359 11.6311 116.25 11.625ZM87.1875 29.0625C82.297 29.0564 77.5718 27.2915 73.8747 24.0902C70.1776 20.8888 67.7553 16.4644 67.0501 11.625H69.75C74.6405 11.6311 79.3657 13.396 83.0628 16.5973C86.7599 19.7987 89.1822 24.2231 89.8874 29.0625H87.1875ZM87.1875 69.75C80.756 69.7421 74.5521 67.3681 69.7584 63.0803C64.9647 58.7926 61.9162 52.8909 61.194 46.5H63.9375C70.369 46.5079 76.5729 48.8819 81.3666 53.1697C86.1603 57.4574 89.2088 63.3591 89.931 69.75H87.1875ZM82.7206 95.6941C85.452 92.9894 89.1423 91.4748 92.9862 91.4808C96.8302 91.4868 100.516 93.0129 103.239 95.7261L143.836 136.323L129.255 144.17C130.311 142.178 130.834 139.946 130.773 137.692C130.712 135.437 130.068 133.237 128.906 131.305C127.743 129.372 126.101 127.774 124.138 126.663C122.175 125.553 119.958 124.969 117.703 124.969H85.3304C78.4195 119.375 69.5924 116.71 60.7406 117.546L82.7206 95.6941ZM171.533 142.743L127.75 171.934C125.365 173.528 122.56 174.378 119.691 174.375H46.5V129.253C51.6471 125.199 58.0454 123.064 64.5955 123.216C71.1456 123.367 77.4383 125.796 82.3922 130.084C82.9186 130.534 83.5886 130.781 84.2812 130.781H117.703C119.63 130.781 121.478 131.547 122.841 132.909C124.203 134.272 124.969 136.12 124.969 138.047C124.969 139.974 124.203 141.822 122.841 143.184C121.478 144.547 119.63 145.312 117.703 145.312H87.1875C86.4167 145.312 85.6775 145.619 85.1325 146.164C84.5874 146.709 84.2812 147.448 84.2812 148.219C84.2812 148.99 84.5874 149.729 85.1325 150.274C85.6775 150.819 86.4167 151.125 87.1875 151.125H127.875C128.356 151.125 128.829 151.006 129.253 150.779L164.976 131.543C165.905 131.043 166.944 130.782 167.999 130.781C168.857 130.79 169.705 130.971 170.493 131.312C171.28 131.653 171.992 132.149 172.586 132.768C173.18 133.388 173.644 134.12 173.951 134.922C174.258 135.724 174.403 136.579 174.375 137.437C174.376 138.487 174.117 139.521 173.621 140.447C173.125 141.373 172.408 142.162 171.533 142.743Z" fill="#20310A"/>
<path d="M34.875 159.844C34.875 158.119 34.3637 156.434 33.4056 155C32.4476 153.566 31.0859 152.449 29.4928 151.789C27.8996 151.129 26.1466 150.956 24.4553 151.293C22.764 151.629 21.2105 152.459 19.9912 153.679C18.7718 154.898 17.9414 156.452 17.605 158.143C17.2686 159.834 17.4413 161.587 18.1012 163.18C18.7611 164.773 19.8786 166.135 21.3124 167.093C22.7462 168.051 24.4318 168.563 26.1563 168.563C28.4686 168.563 30.6863 167.644 32.3213 166.009C33.9564 164.374 34.875 162.156 34.875 159.844ZM23.25 159.844C23.25 159.269 23.4205 158.707 23.7398 158.229C24.0591 157.751 24.513 157.379 25.0441 157.159C25.5751 156.939 26.1595 156.881 26.7232 156.993C27.287 157.105 27.8048 157.382 28.2113 157.789C28.6177 158.195 28.8945 158.713 29.0067 159.277C29.1188 159.841 29.0612 160.425 28.8413 160.956C28.6213 161.487 28.2488 161.941 27.7709 162.26C27.2929 162.58 26.7311 162.75 26.1563 162.75C25.3855 162.75 24.6463 162.444 24.1012 161.899C23.5562 161.354 23.25 160.615 23.25 159.844Z" fill="#20310A"/>
<path d="M87.1875 104.625H81.375V110.438H87.1875V104.625Z" fill="#20310A"/>
<path d="M107.531 107.531H101.719V113.344H107.531V107.531Z" fill="#20310A"/>
<path d="M95.9062 113.344H90.0938V119.156H95.9062V113.344Z" fill="#20310A"/>
<path d="M25.6796 23.2093C27.9893 23.595 30.1209 24.6924 31.7767 26.3482C33.4326 28.004 34.53 30.1356 34.9157 32.4453C35.0302 33.1225 35.3808 33.7372 35.9054 34.1805C36.4299 34.6238 37.0945 34.867 37.7813 34.867C38.468 34.867 39.1326 34.6238 39.6571 34.1805C40.1817 33.7372 40.5323 33.1225 40.6468 32.4453C41.0326 30.1356 42.1299 28.004 43.7858 26.3482C45.4416 24.6924 47.5732 23.595 49.8829 23.2093C50.56 23.0948 51.1747 22.7441 51.618 22.2196C52.0613 21.695 52.3045 21.0305 52.3045 20.3437C52.3045 19.6569 52.0613 18.9924 51.618 18.4678C51.1747 17.9433 50.56 17.5927 49.8829 17.4781C47.5732 17.0924 45.4416 15.995 43.7858 14.3392C42.1299 12.6834 41.0326 10.5518 40.6468 8.24208C40.5323 7.56493 40.1817 6.95021 39.6571 6.50692C39.1326 6.06364 38.468 5.82043 37.7813 5.82043C37.0945 5.82043 36.4299 6.06364 35.9054 6.50692C35.3808 6.95021 35.0302 7.56493 34.9157 8.24208C34.53 10.5518 33.4326 12.6834 31.7767 14.3392C30.1209 15.995 27.9893 17.0924 25.6796 17.4781C25.0025 17.5927 24.3878 17.9433 23.9445 18.4678C23.5012 18.9924 23.258 19.6569 23.258 20.3437C23.258 21.0305 23.5012 21.695 23.9445 22.2196C24.3878 22.7441 25.0025 23.0948 25.6796 23.2093ZM37.7813 16.1936C38.9145 17.8063 40.3186 19.2105 41.9314 20.3437C40.3186 21.4769 38.9145 22.8811 37.7813 24.4938C36.648 22.8811 35.2439 21.4769 33.6311 20.3437C35.2439 19.2105 36.648 17.8063 37.7813 16.1936Z" fill="#20310A"/>
</svg>
