<svg width="185" height="186" viewBox="0 0 185 186" fill="none" xmlns="http://www.w3.org/2000/svg">
<path d="M145.083 93.0204C145.099 93.0204 145.116 93.0204 145.133 93.0185C145.641 92.9906 146.033 92.5535 146.008 92.042C145.984 91.5919 145.921 90.4573 145.893 90.1448C145.847 89.6371 145.412 89.2762 144.886 89.3041C144.378 89.3506 144.004 89.8045 144.05 90.316C144.078 90.6173 144.137 91.7072 144.159 92.1388C144.185 92.6354 144.594 93.0204 145.083 93.0204ZM145.227 96.7404C144.705 96.7367 144.285 97.1198 144.265 97.6332C144.217 98.8459 144.115 100.074 143.963 101.273C143.899 101.781 144.257 102.246 144.764 102.313C144.803 102.319 144.842 102.32 144.881 102.32C145.34 102.32 145.737 101.976 145.799 101.506C145.956 100.252 146.063 98.9743 146.111 97.7057C146.135 97.1942 145.737 96.7609 145.227 96.7404ZM144.047 106.059C143.551 105.923 143.048 106.226 142.918 106.721C137.322 128.225 116.208 143.24 91.575 143.24C91.0644 143.24 90.65 143.657 90.65 144.17C90.65 144.684 91.0644 145.1 91.575 145.1C117.05 145.1 138.898 129.512 144.709 107.194C144.838 106.695 144.541 106.187 144.047 106.059Z" fill="#20310A"/>
<path d="M125.112 42.0806C125.957 40.6038 126.777 38.8145 127.591 36.616C127.718 36.2719 127.633 35.8868 127.374 35.6302C127.115 35.3698 126.727 35.2916 126.392 35.4237C122.907 36.7741 120.252 35.9147 117.177 34.9215C112.425 33.3851 107.069 31.6553 97.9409 38.2379C97.9945 35.5223 98.9177 29.6186 105.147 23.9605C105.4 23.7299 105.506 23.3783 105.422 23.0454C105.341 22.7106 105.08 22.4521 104.749 22.3684L97.3489 20.5084C97.0233 20.4302 96.6718 20.5325 96.4405 20.7836C96.176 21.0757 90.256 27.688 87.4477 37.9031C82.4786 31.8153 77.1099 31.3522 72.7328 30.9727C68.2003 30.5803 64.9258 30.2975 62.839 24.7994C62.6799 24.3772 62.2507 24.1465 61.8067 24.2153C61.3682 24.2953 61.05 24.6822 61.05 25.1305C61.05 32.9629 62.7816 37.5553 65.2088 40.3955C41.2791 49.8964 25.9 71.0725 25.9 94.8805C25.9 127.7 55.3613 154.4 91.575 154.4C127.789 154.4 157.25 127.7 157.25 94.8805C157.25 70.2336 145.834 51.5462 125.112 42.0806ZM72.5737 32.8253C77.145 33.2196 82.325 33.6679 87.1165 40.5424C87.3256 40.8437 87.6937 40.9981 88.0526 40.92C88.4115 40.8493 88.6946 40.5722 88.776 40.2132C90.8794 30.876 96.0539 24.1428 97.4525 22.4483L102.673 23.7615C94.9106 31.7037 96.0132 40.0644 96.3758 40.5573C96.5238 40.7582 96.7476 40.894 96.9937 40.9274C97.236 40.9591 97.4913 40.894 97.6874 40.7396C106.899 33.5525 111.834 35.1447 116.606 36.6848C119.234 37.5367 121.939 38.4109 125.167 37.7208C121.317 47.0878 117.76 46.9222 109.058 46.5521L108.258 46.5149C107.766 46.5186 107.352 46.8571 107.298 47.3444C107.246 47.8318 107.578 48.2763 108.057 48.36C114.941 49.5783 117.013 51.7303 119.207 54.007C120.927 55.7926 122.698 57.6321 126.623 58.9862C122.47 62.1686 118.437 63.5822 114.598 63.1619C109.664 62.6336 104.791 59.1331 99.7002 52.4576C99.4079 52.0781 98.877 51.9814 98.47 52.2381C98.0667 52.4966 97.9242 53.0212 98.1425 53.449C103.213 63.3795 102.834 67.1497 98.5292 77.6922C84.8836 68.9018 86.1971 59.9869 86.9297 55.0207C87 54.5426 86.6966 54.0925 86.2304 53.9791C86.1582 53.9605 86.0861 53.953 86.0139 53.953C85.6254 53.953 85.2665 54.2023 85.137 54.5891C83.9419 58.192 81.8015 60.6937 78.7767 62.0291C74.4163 63.9505 68.1707 63.4409 61.0075 60.6155C65.1367 58.9285 66.1782 55.7479 67.1143 52.891C68.4223 48.8975 69.449 45.7374 78.5381 46.5093C78.9784 46.5502 79.4002 46.2526 79.5112 45.8118C79.624 45.3728 79.4002 44.9153 78.9876 44.7311C77.8517 44.2289 76.5549 43.9016 75.1822 43.5538C69.9522 42.2313 64.0896 40.7507 63.0517 29.029C65.5825 32.2208 69.0013 32.5165 72.5737 32.8253ZM91.575 150.68C57.4018 150.68 29.6 125.649 29.6 94.8805C29.6 72.0657 44.7682 51.7694 68.241 43.1725L68.1429 42.9009C69.6248 43.8123 71.1936 44.3908 72.705 44.826C67.5047 45.7913 66.4224 49.0966 65.3679 52.3162C64.3282 55.4894 63.3477 58.4858 58.0919 59.5591C57.6997 59.639 57.4018 59.9664 57.3574 60.3682C57.313 60.7699 57.5313 61.1549 57.8976 61.3205C66.5297 65.2265 74.2109 66.0858 79.5315 63.7422C81.6146 62.8234 83.3351 61.4432 84.6727 59.6149C84.6856 65.0814 86.7946 72.6851 98.494 79.8665C98.642 79.9577 98.8085 80.0023 98.9769 80.0023C99.0731 80.0023 99.1693 79.9874 99.2618 79.9577C99.5189 79.874 99.7261 79.6824 99.8297 79.4313C103.572 70.4029 104.954 65.7026 102.34 58.3538C106.349 62.3918 110.33 64.5848 114.411 65.0219C119.175 65.5185 124.148 63.6139 129.174 59.3228C129.437 59.0996 129.554 58.7462 129.478 58.4096C129.402 58.0729 129.145 57.8051 128.814 57.7158C124.155 56.4733 122.402 54.6524 120.544 52.7236C119.125 51.2504 117.679 49.7476 115.029 48.5014C118.195 48.3172 120.701 47.5286 122.918 45.1478C136.981 51.3546 153.55 65.007 153.55 94.8805C153.55 125.649 125.748 150.68 91.575 150.68Z" fill="#20310A"/>
</svg>
