<svg width="186" height="186" viewBox="0 0 186 186" fill="none" xmlns="http://www.w3.org/2000/svg">
<path d="M127.875 8.71875C127.875 7.94796 127.569 7.20875 127.024 6.66372C126.479 6.11869 125.74 5.8125 124.969 5.8125H113.344C112.573 5.8125 111.834 6.11869 111.289 6.66372C110.744 7.20875 110.438 7.94796 110.438 8.71875C110.415 14.7981 108.285 20.6815 104.41 25.3657C104.547 24.6686 104.618 23.9604 104.625 23.25V17.4375C104.625 14.3544 103.4 11.3975 101.22 9.21738C99.04 7.03727 96.0831 5.8125 93 5.8125C89.9169 5.8125 86.96 7.03727 84.7799 9.21738C82.5998 11.3975 81.375 14.3544 81.375 17.4375V23.25C81.3815 23.9604 81.4535 24.6686 81.5901 25.3657C77.715 20.6815 75.5847 14.7981 75.5625 8.71875C75.5625 7.94796 75.2563 7.20875 74.7113 6.66372C74.1663 6.11869 73.427 5.8125 72.6562 5.8125H61.0312C60.2605 5.8125 59.5212 6.11869 58.9762 6.66372C58.4312 7.20875 58.125 7.94796 58.125 8.71875C58.1394 16.0324 60.0142 23.2221 63.5731 29.6114C67.1321 36.0006 72.2581 41.3794 78.4688 45.2416V54.7828L66.9716 92.1456C66.9591 92.2507 66.9523 92.3565 66.9513 92.4623C66.8979 92.6376 66.8619 92.8177 66.8438 93C66.8216 99.0793 64.6913 104.963 60.8162 109.647C60.9528 108.95 61.0247 108.242 61.0312 107.531V101.719C61.0312 98.6356 59.8065 95.6787 57.6264 93.4986C55.4463 91.3185 52.4894 90.0938 49.4062 90.0938C46.3231 90.0938 43.3662 91.3185 41.1861 93.4986C39.006 95.6787 37.7812 98.6356 37.7812 101.719V107.531C37.7877 108.242 37.8597 108.95 37.9963 109.647C34.1212 104.963 31.9909 99.0793 31.9688 93C31.9688 92.2292 31.6626 91.49 31.1175 90.945C30.5725 90.3999 29.8333 90.0938 29.0625 90.0938H17.4375C16.6667 90.0938 15.9275 90.3999 15.3825 90.945C14.8374 91.49 14.5312 92.2292 14.5312 93C14.5456 100.314 16.4205 107.503 19.9794 113.893C23.5383 120.282 28.6643 125.661 34.875 129.523V139.064L23.3779 176.427C23.2442 176.862 23.2143 177.322 23.2908 177.77C23.3673 178.218 23.5479 178.642 23.8182 179.008C24.0884 179.374 24.4408 179.671 24.8469 179.876C25.2529 180.081 25.7014 180.188 26.1562 180.188H37.7812C38.3778 180.188 38.96 180.004 39.4487 179.662C39.9375 179.32 40.3091 178.836 40.5131 178.275L49.4062 153.816L58.2994 178.275C58.5034 178.836 58.875 179.32 59.3638 179.662C59.8525 180.004 60.4347 180.188 61.0312 180.188H72.6562C73.1057 180.187 73.549 180.083 73.9512 179.882C74.3534 179.681 74.7036 179.39 74.9743 179.031C75.245 178.673 75.4287 178.256 75.5111 177.814C75.5935 177.372 75.5723 176.917 75.4492 176.485L63.9375 136.187V129.529C70.0687 125.718 75.1436 120.428 78.6954 114.143C82.2472 107.859 84.1621 100.782 84.2638 93.5638L93 69.5349L101.736 93.5638C101.844 100.78 103.761 107.853 107.313 114.136C110.864 120.419 115.936 125.709 122.062 129.523V139.064L110.565 176.427C110.432 176.862 110.402 177.322 110.478 177.77C110.555 178.218 110.735 178.642 111.006 179.008C111.276 179.374 111.628 179.671 112.034 179.876C112.44 180.081 112.889 180.188 113.344 180.188H124.969C125.565 180.188 126.148 180.004 126.636 179.662C127.125 179.32 127.497 178.836 127.701 178.275L136.594 153.816L145.487 178.275C145.691 178.836 146.063 179.32 146.551 179.662C147.04 180.004 147.622 180.188 148.219 180.188H159.844C160.293 180.187 160.736 180.083 161.139 179.882C161.541 179.681 161.891 179.39 162.162 179.031C162.432 178.673 162.616 178.256 162.699 177.814C162.781 177.372 162.76 176.917 162.637 176.485L151.125 136.187V129.529C157.339 125.669 162.468 120.29 166.027 113.899C169.587 107.508 171.459 100.315 171.469 93C171.469 92.2292 171.163 91.49 170.618 90.945C170.073 90.3999 169.333 90.0938 168.562 90.0938H156.938C156.167 90.0938 155.427 90.3999 154.882 90.945C154.337 91.49 154.031 92.2292 154.031 93C154.009 99.0793 151.879 104.963 148.004 109.647C148.14 108.95 148.212 108.242 148.219 107.531V101.719C148.219 98.6356 146.994 95.6787 144.814 93.4986C142.634 91.3185 139.677 90.0938 136.594 90.0938C133.511 90.0938 130.554 91.3185 128.374 93.4986C126.194 95.6787 124.969 98.6356 124.969 101.719V107.531C124.975 108.242 125.047 108.95 125.184 109.647C121.309 104.963 119.178 99.0793 119.156 93C119.081 92.7413 119.043 92.4732 119.043 92.2037L107.531 51.9056V45.2474C113.746 41.3878 118.874 36.0088 122.434 29.6177C125.993 23.2266 127.866 16.0341 127.875 8.71875ZM87.1875 17.4375C87.1875 15.8959 87.7999 14.4175 88.8899 13.3274C89.98 12.2374 91.4584 11.625 93 11.625C94.5416 11.625 96.02 12.2374 97.1101 13.3274C98.2001 14.4175 98.8125 15.8959 98.8125 17.4375V23.25C98.8125 24.7916 98.2001 26.27 97.1101 27.3601C96.02 28.4501 94.5416 29.0625 93 29.0625C91.4584 29.0625 89.98 28.4501 88.8899 27.3601C87.7999 26.27 87.1875 24.7916 87.1875 23.25V17.4375ZM43.5938 101.719C43.5938 100.177 44.2061 98.6987 45.2962 97.6087C46.3862 96.5186 47.8647 95.9062 49.4062 95.9062C50.9478 95.9062 52.4263 96.5186 53.5163 97.6087C54.6064 98.6987 55.2188 100.177 55.2188 101.719V107.531C55.2188 109.073 54.6064 110.551 53.5163 111.641C52.4263 112.731 50.9478 113.344 49.4062 113.344C47.8647 113.344 46.3862 112.731 45.2962 111.641C44.2061 110.551 43.5938 109.073 43.5938 107.531V101.719ZM59.5781 125.358C59.1363 125.613 58.7695 125.98 58.5144 126.422C58.2593 126.864 58.125 127.365 58.125 127.875V136.594C58.1245 136.863 58.1627 137.131 58.2383 137.39L68.8026 174.375H63.0656L52.1381 144.319C51.9345 143.758 51.563 143.273 51.0743 142.93C50.5855 142.588 50.0031 142.404 49.4062 142.404C48.8094 142.404 48.227 142.588 47.7382 142.93C47.2495 143.273 46.878 143.758 46.6744 144.319L35.7469 174.375H30.0913L40.5538 140.354C40.6404 140.078 40.6855 139.79 40.6875 139.5V127.875C40.6591 127.338 40.4956 126.816 40.2121 126.359C39.9286 125.902 39.5344 125.524 39.0658 125.259C33.812 122.248 29.3716 118.001 26.1296 112.886C22.8875 107.771 20.9414 101.943 20.46 95.9062H26.2899C26.7076 100.357 28.0486 104.671 30.2274 108.574C32.4061 112.478 35.3747 115.884 38.9437 118.575C39.4468 118.952 40.0587 119.156 40.6875 119.156H58.125C58.7538 119.156 59.3657 118.952 59.8688 118.575C63.4378 115.884 66.4064 112.478 68.5851 108.574C70.7639 104.671 72.1049 100.357 72.5226 95.9062H78.3525C77.8598 101.974 75.8917 107.829 72.6196 112.962C69.3475 118.095 64.8704 122.35 59.5781 125.358ZM130.781 101.719C130.781 100.177 131.394 98.6987 132.484 97.6087C133.574 96.5186 135.052 95.9062 136.594 95.9062C138.135 95.9062 139.614 96.5186 140.704 97.6087C141.794 98.6987 142.406 100.177 142.406 101.719V107.531C142.406 109.073 141.794 110.551 140.704 111.641C139.614 112.731 138.135 113.344 136.594 113.344C135.052 113.344 133.574 112.731 132.484 111.641C131.394 110.551 130.781 109.073 130.781 107.531V101.719ZM126.131 118.575C126.634 118.952 127.246 119.156 127.875 119.156H145.312C145.941 119.156 146.553 118.952 147.056 118.575C150.625 115.884 153.594 112.478 155.773 108.574C157.951 104.671 159.292 100.357 159.71 95.9062H165.54C165.047 101.974 163.079 107.829 159.807 112.962C156.535 118.095 152.058 122.35 146.766 125.358C146.324 125.613 145.957 125.98 145.702 126.422C145.447 126.864 145.313 127.365 145.312 127.875V136.594C145.312 136.863 145.35 137.131 145.426 137.39L155.99 174.375H150.253L139.326 144.319C139.122 143.758 138.751 143.273 138.262 142.93C137.773 142.588 137.191 142.404 136.594 142.404C135.997 142.404 135.414 142.588 134.926 142.93C134.437 143.273 134.066 143.758 133.862 144.319L122.934 174.375H117.279L127.741 140.354C127.828 140.078 127.873 139.79 127.875 139.5V127.875C127.847 127.338 127.683 126.816 127.4 126.359C127.116 125.902 126.722 125.524 126.253 125.259C120.999 122.248 116.559 118.001 113.317 112.886C110.075 107.771 108.129 101.943 107.647 95.9062H113.477C113.895 100.357 115.236 104.671 117.415 108.574C119.594 112.478 122.562 115.884 126.131 118.575ZM101.832 53.1088L112.396 90.0938H106.659L95.7319 60.0373C95.5282 59.4763 95.1568 58.9915 94.668 58.6489C94.1793 58.3064 93.5969 58.1226 93 58.1226C92.4031 58.1226 91.8207 58.3064 91.332 58.6489C90.8432 58.9915 90.4718 59.4763 90.2681 60.0373L79.3406 90.0938H73.6851L84.1476 56.0732C84.2342 55.7966 84.2793 55.5086 84.2812 55.2188V43.5938C84.2529 43.0565 84.0893 42.5352 83.8059 42.078C83.5224 41.6207 83.1281 41.2424 82.6596 40.9781C77.4057 37.9666 72.9654 33.7194 69.7233 28.6046C66.4812 23.4898 64.5352 17.6616 64.0538 11.625H69.8837C70.3013 16.0755 71.6423 20.3901 73.8211 24.2932C75.9999 28.1963 78.9685 31.6023 82.5375 34.2938C83.0406 34.671 83.6524 34.875 84.2812 34.875H101.719C102.348 34.875 102.959 34.671 103.462 34.2938C107.032 31.6023 110 28.1963 112.179 24.2932C114.358 20.3901 115.699 16.0755 116.116 11.625H121.946C121.454 17.6923 119.485 23.5473 116.213 28.6804C112.941 33.8135 108.464 38.0691 103.172 41.0769C102.73 41.332 102.363 41.6989 102.108 42.1407C101.853 42.5825 101.719 43.0836 101.719 43.5938V52.3125C101.718 52.582 101.756 52.8502 101.832 53.1088Z" fill="#20310A"/>
</svg>
