<svg width="943" height="943" viewBox="0 0 943 943" fill="none" xmlns="http://www.w3.org/2000/svg">
<g clip-path="url(#clip0_140_1004)">
<path d="M882.962 581.831C882.962 808.38 699.307 992.036 472.757 992.036C246.208 992.036 62.5523 808.38 62.5523 581.831C62.5523 355.282 246.208 171.626 472.757 171.626C699.307 171.626 882.962 355.282 882.962 581.831Z" fill="#F8F0EA"/>
<path d="M882.962 581.831C882.962 808.38 699.307 992.036 472.757 992.036C246.208 992.036 62.5523 808.38 62.5523 581.831C62.5523 355.282 246.208 171.626 472.757 171.626C699.307 171.626 882.962 355.282 882.962 581.831Z" fill="#F8F0EA"/>
<path d="M840.213 502.619C829.526 406.276 894.121 382.229 945.2 441.638V704.578C934.919 725.755 927.472 734.132 903.394 726.581L764.144 538.139C782.096 537.444 798.737 536.253 800.921 529.337C812.237 493.503 840.857 508.434 840.213 502.619Z" fill="white"/>
<path d="M106.716 528.08C123.285 469.979 62.2223 419.195 0.157166 467.099V585.76L82.041 645.641L175.398 547.569C155.281 538.924 139.322 551.498 138.935 547.569C135.32 510.949 104.475 535.938 106.716 528.08Z" fill="white"/>
<path d="M870.596 682.195C878.672 650.079 882.962 616.455 882.962 581.831C882.962 527.454 872.382 475.549 853.167 428.059C842.061 443.556 836.438 468.574 840.213 502.619C840.398 504.285 838.182 504.247 834.659 504.191C825.883 504.046 808.997 503.766 800.921 529.337C798.737 536.253 782.096 537.444 764.144 538.139L870.596 682.195Z" fill="white"/>
<path d="M65.8088 633.771L82.041 645.641L175.398 547.569C162.196 541.895 150.786 545.362 144.389 547.305C141.041 548.32 139.067 548.92 138.935 547.569C136.424 522.117 120.757 526.427 112.186 528.784C108.426 529.818 106.031 530.475 106.716 528.08C115.14 498.536 103.494 470.884 81.8493 457.138C69.3168 496.458 62.5523 538.356 62.5523 581.831C62.5523 599.424 63.6588 616.76 65.8088 633.771Z" fill="white"/>
<path d="M792.434 574.444C808.714 599.905 862.373 667.015 909.523 725.953C736.483 947.243 387.262 837.736 73.8683 643.44C160.782 564.7 247.503 469.928 268.755 444.31C280.228 430.479 290.46 434.239 302.546 434.251C311.869 434.261 315.119 420.892 322.82 416.177L363.841 387.573L403.604 324.235C418.538 304.058 442.267 301.446 477.315 301.446C498.533 301.446 532.952 339.797 547.726 348.438C560.862 356.121 569.258 364.312 574.287 372.799C610.121 408.005 630.71 453.743 662.929 449.025C700.492 443.524 691.219 453.583 706.621 464.27C718.736 472.676 758.078 528.237 792.434 574.444Z" fill="url(#paint0_linear_140_1004)"/>
<path d="M759.872 536.366C751.502 529.567 744.3 523.714 744.97 527.923C745.47 531.054 749.349 541.392 753.432 552.268C760.004 569.77 767.102 588.674 761.473 581.202C750.2 562.399 737.806 540.682 726.471 520.819C707.102 486.877 690.829 458.361 688.547 459.084C684.124 460.486 677.652 459.188 671.887 458.034C665.359 456.726 659.732 455.598 659 458.769C654.285 479.201 647.527 472.443 628.667 448.783C617.835 435.194 592.833 408.162 573.973 394.96L507.491 356.14C505.206 354.442 502.952 352.365 500.84 350.413C495.179 345.191 490.517 340.888 488.945 347.338C486.553 357.152 483.552 353.452 479.915 348.976C477.227 345.669 474.2 341.938 470.815 342.906C466.675 344.094 461.828 375.518 458.012 400.25C455.507 416.495 453.448 429.851 452.326 429.851C447.416 429.851 447.032 407.769 446.652 385.722C446.243 362.172 445.835 338.663 439.909 342.152C438.055 343.243 435.635 345.782 433.214 348.322C426.808 355.039 420.402 361.754 424.507 341.68C426.846 330.251 387.73 361.483 365.884 393.86L323.135 430.322C308.77 442.845 293.22 459.69 281.696 472.17C268.639 486.318 260.749 494.861 265.612 485.173C266.061 484.278 268.271 481.546 271.15 477.994C280.901 465.949 298.296 444.458 280.7 452.954C276.978 454.752 274.334 458.006 271.791 461.14C268.535 465.154 265.436 468.97 260.425 469.3C252.906 469.793 242.206 477.334 230.18 487.572C248.348 467.901 261.931 452.539 268.755 444.31C278.172 432.956 286.754 433.456 296.209 434.006C298.274 434.126 300.38 434.248 302.546 434.251C308.094 434.258 311.492 429.524 314.959 424.696C317.313 421.414 319.702 418.085 322.82 416.177L363.841 387.573L403.604 324.235C418.538 304.058 442.267 301.446 477.315 301.446C491.715 301.446 512.197 319.111 528.489 333.165C536.202 339.819 542.979 345.663 547.726 348.438C560.862 356.121 569.258 364.312 574.287 372.799C585.468 383.785 595.165 395.793 604.193 406.977C624.103 431.633 640.762 452.272 662.929 449.025C689.575 445.124 692.652 449.05 697.691 455.478C699.753 458.113 702.145 461.165 706.621 464.27C716.202 470.918 742.817 507.064 770.525 544.752C767.096 542.238 763.38 539.217 759.872 536.366Z" fill="url(#paint1_linear_140_1004)"/>
<path d="M126.676 663.715C84.3828 702.607 62.9358 726.085 27.1898 769.802L204.16 897.422C322.493 777.459 381.497 706.087 458.77 563.128C456.569 555.27 415.709 513.621 412.72 505.92C406.433 489.731 384.43 491.444 374.685 498.218C352.525 513.621 299.874 520.888 284.315 513.621C275.878 509.679 270.798 519.907 263.569 527.451L126.676 663.715Z" fill="url(#paint2_linear_140_1004)"/>
<path d="M435.591 551.338C433.535 548.791 431.969 546.855 431.108 546.154C430.91 545.991 430.677 545.799 430.423 545.588C426.469 542.297 416.199 533.757 414.134 546.154C412.515 555.867 408.033 550.897 402.642 544.919C401.979 544.183 401.303 543.435 400.618 542.696C391.411 532.773 392.473 545.629 394.089 565.184C395.315 580.008 396.862 598.686 394.488 614.207C391.971 630.678 385.869 611.306 378.558 588.083C374.566 575.406 370.212 561.578 365.884 551.812C363.863 547.254 360.71 546.846 357.083 561.714C347.81 534.524 340.904 548.314 330.521 583.403C321.406 614.207 312.29 616.093 318.891 573.501C322.748 548.606 312.466 540.493 277.871 580.731C263.276 597.705 252.881 602.577 275.67 557.785C281.834 545.67 275.639 548.326 268.035 551.592C264.493 553.11 260.642 554.764 257.596 555.113C256.801 555.204 256.062 555.176 255.308 555.144C251.599 554.999 247.503 554.836 234.178 568.943C179.151 627.208 140.972 659.723 125.538 664.762C125.916 664.416 126.296 664.067 126.676 663.715L263.568 527.451C265.194 525.757 266.709 523.928 268.177 522.152C273.25 516.028 277.773 510.565 284.314 513.621C299.874 520.888 352.525 513.621 374.685 498.218C384.43 491.444 406.433 489.731 412.72 505.92C414.134 509.559 424.004 520.781 434.255 532.434C445.696 545.441 457.61 558.982 458.77 563.128C458.081 564.404 457.393 565.674 456.707 566.938L451.383 568.315C445.288 563.354 439.532 556.225 435.591 551.338Z" fill="url(#paint3_linear_140_1004)"/>
<path d="M134.063 768.702C134.227 770.893 125.787 770.431 122.904 771.846C113.276 871.98 126.588 901.439 202.116 880.133C287.354 800.915 336.723 757.11 382.544 662.615C324.549 586.86 254.296 641.554 235.436 697.82C196.285 670.193 178.384 711.493 178.384 739.469C158.968 724.158 133.104 755.799 134.063 768.702Z" fill="white"/>
<path d="M785.205 777.346C802.198 793.446 831.569 815.066 825.596 822.925C819.624 830.783 585.128 891.547 468.199 921.468C333.665 948.029 217.987 955.696 193.944 871.332C266.665 805.489 357.554 702.692 446.353 571.929C459.203 556.084 466.313 558.57 482.659 553.227L515.664 549.297C522.123 553.623 527.564 555.609 546.154 556.999L572.401 558.256C604.683 554.519 607.292 575.544 632.753 601.634L677.074 639.825C713.188 690.377 764.773 757.987 785.205 777.346Z" fill="url(#paint4_linear_140_1004)"/>
<path d="M715.039 691.549L677.074 664.343C646.728 650.035 630.694 641.055 609.649 617.665L609.345 617.329C601.232 608.307 592.635 598.745 581.674 619.079C579.599 622.93 575.774 619.344 571.656 615.487C567.708 611.787 563.493 607.839 560.299 609.964C558.781 610.976 560.048 623.945 561.352 637.257C563.012 654.253 564.731 671.815 560.771 665.758C554.179 655.577 548.747 642.51 543.621 630.172C532.163 602.605 522.215 578.672 504.191 598.648C502.434 600.594 500.305 600.295 497.703 599.927C493.55 599.339 488.201 598.585 481.244 606.506C479.041 609.015 477.035 611.699 475.118 614.267C468.306 623.376 462.598 631.012 453.111 624.109C440.623 614.047 415.039 642.45 381.676 679.491C358.56 705.157 331.707 734.968 302.885 759.008C349.152 705.883 398.062 643.041 446.353 571.929C456.013 560.016 462.428 558.467 471.962 556.159C475.112 555.399 478.601 554.553 482.659 553.227L515.664 549.297C522.123 553.623 527.564 555.609 546.154 556.999L572.401 558.256C595.662 555.565 603.517 565.725 615.612 581.375C620.305 587.445 625.636 594.341 632.753 601.634L677.074 639.825C688.651 656.029 701.818 673.987 715.039 691.549Z" fill="url(#paint5_linear_140_1004)"/>
<path d="M844.142 758.015C852.683 753.422 857.816 753.652 866.931 753.771C874.626 802.842 859.664 825.141 823.082 830.154C762.482 787.631 741.77 748.176 706.307 686.19C763.588 642.067 810.98 670.002 797.935 720.924C825.125 703.007 846.342 728.625 844.142 758.015Z" fill="white"/>
<path d="M106.716 656.485C121.716 647.986 128.569 647.681 137.992 655.385L-0.942993 802.65V583.245C45.4212 554.798 92.7283 588.746 74.9685 641.397C89.2078 638.216 101.058 643.126 106.716 656.485Z" fill="white"/>
<path d="M804.222 811.137C841.313 846.185 925.712 919.268 948.029 942.843H386.944C421.993 901.194 465.685 867.928 482.03 849.8C551.184 773.103 565.511 740.704 611.378 750.628C638.254 756.443 654.756 744.97 688.076 744.97C743.87 743.398 736.955 751.571 762.73 782.533C782.69 784.733 798.25 805.495 804.222 811.137Z" fill="url(#paint6_linear_140_1004)"/>
<path d="M899.059 896.941C881.337 890.481 848.317 867.921 838.17 857.501C820.567 839.427 772.82 804.285 783.633 819.153C784.739 820.677 786.493 822.874 788.43 825.304C795.292 833.908 804.48 845.428 795.578 840.213C784.576 833.769 786.387 837.032 798.25 848.7C803.081 853.453 809.063 859.758 815.431 866.472C825.216 876.792 835.916 888.073 844.771 896.164C864.731 914.408 881.161 935.421 818.524 888.62C812.391 884.04 804.794 878.005 796.433 871.367C759.357 841.926 707.322 800.607 702.064 821.51C702.064 825.647 702.966 829.818 703.733 833.354C705.675 842.306 706.731 847.179 689.962 837.07C677.112 829.324 686.862 849.272 701.966 880.171C702.566 881.4 703.176 882.645 703.792 883.905C720.295 917.696 662.143 877.147 640.297 822.453C639.109 819.476 638.244 818.062 637.154 818.09C636.343 818.163 635.72 818.989 635.026 819.91C633.033 822.557 630.452 825.983 621.123 814.438C620.84 814.064 620.554 813.686 620.271 813.309C615.062 806.366 609.712 799.233 596.448 814.438C594.401 816.783 591.868 817.921 589.067 819.178C585.421 820.819 581.322 822.657 577.273 827.64C575.133 830.274 572.068 834.197 568.315 839.006C558.146 852.029 542.917 871.53 527.294 889.406C512.049 906.852 509.849 894.436 529.809 857.501C537.029 844.142 547.726 821.825 534.052 824.182C528.058 825.216 535.857 815.28 544.913 803.741C547.251 800.761 549.678 797.671 551.969 794.635C559.671 784.438 540.653 794.635 531.538 804.693C530.004 806.384 528.206 808.431 526.2 810.713C514.168 824.396 494.707 846.531 480.6 851.353C481.097 850.825 481.574 850.306 482.03 849.8C502.49 827.108 517.424 807.922 529.495 792.409C558.225 755.497 570.754 739.397 603.049 746.385C619.799 750.009 635.755 748.566 653.468 746.963C664.174 745.995 675.521 744.97 688.076 744.97C733.538 743.691 737.366 748.877 751.169 767.596C754.306 771.849 757.958 776.799 762.73 782.533C779.305 784.359 792.846 798.985 800.381 807.126C801.921 808.789 803.21 810.178 804.222 811.137C819.643 825.71 843.243 846.855 867.158 868.286C877.968 877.974 888.844 887.718 899.059 896.941Z" fill="url(#paint7_linear_140_1004)"/>
<path d="M913.61 725.796C910.624 705.364 930.898 691.376 943.786 691.376L943.471 944.257L810.351 817.738L841.313 809.88C843.91 783.583 850.454 782.646 863.159 783.79C857.187 731.925 885.163 709.765 913.61 725.796Z" fill="white"/>
<path d="M142.55 868.66C196.458 753.3 52.0222 727.682 -0.628662 789.134V942.686H412.405C369.904 925.378 332.558 924.885 268.283 922.411C253.849 890.893 241.179 895.388 217.99 906.223C214.69 860.645 173.669 854.201 142.55 868.66Z" fill="white"/>
<path d="M680.375 566.743C675.609 561.673 672.963 560.626 672.988 552.284L675.974 543.797C680.349 528.473 687.604 505.448 685.718 504.348C683.389 503.006 680.557 501.362 680.217 500.261C679.714 498.627 681.242 498.375 681.318 496.804C681.531 492.325 686.347 485.959 686.818 490.674C688.39 489.26 689.333 489.574 689.805 491.146C691.533 490.203 692.715 490.615 692.476 492.717C694.048 492.246 694.834 493.189 694.834 494.761C694.834 496.647 693.812 498.375 694.362 499.476C694.834 500.419 694.991 503.562 694.205 504.819C692.948 518.493 690.188 534.838 689.333 541.439C688.233 549.926 685.561 559.356 680.375 566.743Z" fill="#B25C5E"/>
<path d="M636.682 549.297L628.038 557.47C623.945 551.413 622.644 548.512 621.28 542.068C619.551 533.895 616.093 516.921 615.779 508.591C615.779 508.591 613.107 506.077 614.207 503.248C612.818 501.186 611.448 499.004 611.378 497.59C611.246 494.952 612.164 494.918 613.893 495.075C613.736 493.032 614.836 492.875 616.093 493.189C616.929 491.14 618.294 491.617 619.237 492.56C619.482 491.517 620.023 490.97 620.808 491.146C623.144 491.668 622.852 497.118 624.895 497.747C626.425 498.218 625.838 503.562 623.166 505.762C623.452 506.492 623.364 507.01 623.166 507.963L630.081 536.724L636.682 549.297Z" fill="#B25C5E"/>
<path d="M683.203 758.801C691.675 758.358 691.062 753.929 689.49 749.842C687.447 746.856 673.208 746.385 670.944 749.214C660.886 761.787 675.188 758.801 683.203 758.801Z" fill="white"/>
<path d="M598.962 747.956C598.252 743.845 603.834 743.398 606.821 739.941C612.444 730.841 618.253 733.874 628.981 740.412C630.081 741.082 629.572 745.599 628.981 747.956C628.195 751.099 599.396 750.471 598.962 747.956Z" fill="white"/>
<path d="M681.16 688.704C676.76 669.53 679.482 655.086 677.231 634.796L637.625 631.181C627.337 653.92 615.741 675.031 612.95 690.905C610.435 705.207 610.592 722.948 607.763 727.525C604.089 733.469 605.092 742.028 606.506 740.569C609.992 736.973 611.954 736.565 615.465 738.212C626.784 743.703 632.467 745.803 631.181 732.711C638.021 717.101 632.91 689.647 636.525 685.561L656.171 655.385L664.029 706.307C665.601 723.07 667.389 742.509 667.015 747.956C666.641 753.404 670.913 748.113 672.673 749.371C674.874 750.942 685.561 751.81 688.704 750.471C693.859 748.271 687.808 744.184 687.604 740.727C686.504 722.024 685.561 707.879 681.16 688.704Z" fill="#1E2B4E"/>
<path d="M664.344 537.038C668.901 520.064 625.838 532.166 635.739 539.71C646.062 549.345 652.565 551.451 663.243 549.14C669.059 543.482 668.43 539.396 664.344 537.038Z" fill="#1E2B4E"/>
<path d="M660.257 567.214L672.045 548.826C672.83 546.783 680.689 562.971 681.475 567.686L675.817 581.831C679.746 591.104 677.162 614.836 678.488 617.822C681.358 624.282 681.475 632.659 678.803 634.796C670.159 641.711 640.454 636.415 636.839 633.224C632.426 629.33 633.234 626.218 635.268 620.494C632.596 606.349 633.067 589.061 634.167 582.617C628.264 574.161 626.623 567.843 625.523 561.242C625.156 559.042 632.876 548.332 636.211 550.555C639.04 552.441 639.09 556.794 640.611 561.871L643.44 569.258C644.635 568.223 645.329 568.007 646.584 567.843L653.97 564.385C657.488 562.751 657.742 564.857 660.257 567.214Z" fill="#FECB72"/>
<path d="M655.071 567.686C654.442 567.309 654.074 563.024 653.971 560.928L645.955 564.228C647.451 567.457 647.42 571.068 647.841 577.116L650.199 571.301L655.071 567.686Z" fill="#B25C5E"/>
<path fill-rule="evenodd" clip-rule="evenodd" d="M654.065 562.396C654.024 561.852 653.993 561.346 653.971 560.928L645.955 564.228C646.313 565.005 646.584 565.8 646.794 566.649C648.196 566.809 650.217 565.693 654.065 562.396Z" fill="#983D3C"/>
<path d="M655.071 536.41C643.598 538.139 635.896 537.196 635.896 539.868L635.425 555.584C635.966 559.472 639.826 562.481 642.969 564.228C647.212 566.586 658.686 560.142 658.686 555.899C667.958 556.056 663.558 542.068 658.686 549.298C657.585 550.929 657.9 543.64 656.171 542.068C655.099 541.093 658.371 538.654 656.328 538.767C652.418 538.984 653.867 537.353 655.071 536.41Z" fill="#B25C5E"/>
<path d="M359.597 287.301C366.381 290.526 364.627 297.674 360.697 300.031C353.839 305.4 347.653 311.457 342.309 313.39C334.708 316.141 325.247 312.605 323.92 309.618C321.695 304.605 326.592 299.83 324.706 296.574C322.977 293.587 323.763 291.073 325.492 290.13C325.483 287.033 324.863 285.091 326.592 282.429C332.407 273.47 348.753 268.912 353.625 278.814C355.816 279.741 358.604 286.829 359.597 287.301Z" fill="#FECB72"/>
<path d="M357.711 316.848C356.203 316.345 352.996 316.637 351.582 316.848L342.466 317.32C340.238 317.373 337.751 317.32 337.28 317.948L335.551 322.506C331.235 324.882 325.807 327.064 324.864 328.636L309.147 356.14C309.147 358.497 318.357 359.01 322.035 360.855L330.836 366.827C331.622 368.87 332.093 375.229 330.364 377.357C320.149 389.931 321.092 440.142 324.706 441.638C344.824 449.968 368.713 447.296 374.843 432.837C375.641 430.951 374.406 418.701 370.442 406.119C365.57 389.931 363.369 358.89 365.098 356.611C375.471 342.938 366.041 338.851 366.041 336.337C366.041 334.576 368.458 336.965 369.027 336.337C376.053 328.585 379.47 322.978 381.601 313.233C382.701 308.204 371.385 299.88 370.442 301.289C366.827 306.686 359.22 317.351 357.711 316.848Z" fill="#FB6248"/>
<path d="M339.794 320.306C343.68 317.474 343.604 313.551 341.523 310.404L351.425 311.504C350.504 317.14 351.814 318.272 354.568 319.834L353.468 321.249C352.691 322.449 352.647 323.634 352.368 325.492C350.981 322.981 349.991 321.918 346.867 322.192C344.613 321.563 340.046 320.306 339.794 320.306Z" fill="#FEAD98"/>
<path d="M380.343 310.718L373.271 302.389L376.729 296.102C376.769 282.551 384.273 267.812 383.801 254.296C381.444 251.624 376.257 248.323 380.343 245.494C379.734 241.304 382.701 235.492 383.958 236.379C388.202 239.365 392.084 241.204 393.231 242.351C394.017 243.137 393.388 253.038 390.716 254.296C391.898 265.703 388.195 279.408 385.844 296.731C385.844 301.288 383.776 305.158 380.343 310.718Z" fill="#FEAD98"/>
<path fill-rule="evenodd" clip-rule="evenodd" d="M351.318 312.215C351.192 313.12 351.132 313.9 351.132 314.575C347.549 317.018 345.638 315.946 342.586 312.582C342.4 312.01 342.146 311.448 341.831 310.904L347.863 311.111L351.28 311.492L351.318 312.215Z" fill="#C66C55"/>
<path d="M354.411 282.743C351.425 286.829 340.895 290.601 334.765 291.858L334.451 294.53C337.594 296.259 336.082 306.318 337.28 307.732C343.239 314.777 353.939 312.592 355.511 311.347C363.055 305.375 362.269 298.302 357.711 292.173C356.658 290.758 356.372 284.497 354.411 282.743Z" fill="#FEAD98"/>
<path d="M344.195 306.318L357.554 299.874C358.969 306.789 353.782 313.705 344.195 306.318Z" fill="#C66C55"/>
<path d="M310.561 373.114C305.218 363.998 310.404 360.383 312.29 355.354C315.588 354.606 317.489 355.514 320.934 358.654V360.069C330.949 355.989 336.246 353.502 343.881 347.967C344.098 345.239 346.71 338.616 348.124 338.537C351.968 338.32 357.582 346.109 358.497 348.753C359.267 350.981 355.983 350.953 355.354 352.996C354.725 355.039 354.097 353.939 352.682 355.511C351.066 357.306 349.328 355.982 348.596 355.039C338.603 362.225 326.47 371.228 322.349 372.642C317.134 374.431 311.482 374.685 310.561 373.114Z" fill="#FEAD98"/>
<path d="M354.096 515.821C351.833 513.558 354.725 506.077 356.14 506.077L363.369 505.919C371.878 511.417 373.28 519.2 371.228 520.693C367.77 523.208 356.36 518.084 354.096 515.821Z" fill="#FB6248"/>
<path d="M323.763 505.919C322.349 505.919 319.457 513.401 321.72 515.664C323.983 517.927 335.394 523.051 338.851 520.536C340.904 519.043 339.816 511.574 331.307 506.077L323.763 505.919Z" fill="#FB6248"/>
<path d="M366.72 470.356C369.166 457.666 369.753 450.867 369.084 439.438L353.16 445.589C354.577 453.684 349.218 468.253 353.631 483.306C354.304 493.098 355.395 506.878 356.787 508.396C364.196 516.491 366.56 514.708 367.349 514.384C368.276 514.004 366.956 509.374 363.725 505.806C362.844 504.835 366.157 473.27 366.72 470.356Z" fill="#FEAD98"/>
<path d="M328.249 462.101C330.05 454.579 330.528 450.317 329.038 442.512L345.748 444.779C345.927 452.291 344.811 456.403 342.595 463.72C338.81 480.229 330.412 504.681 331.244 505.806L331.282 505.857C334.256 509.877 336.283 512.612 334.554 514.384C332.819 516.167 328.617 512.876 324.15 508.396C323.044 507.425 324.282 477.714 328.249 462.101Z" fill="#FEAD98"/>
<path d="M345.493 297.428C345.764 298.161 345.521 298.925 344.953 299.135C344.38 299.346 343.698 298.925 343.428 298.189C343.158 297.457 343.4 296.693 343.969 296.482C344.541 296.272 345.22 296.696 345.493 297.428Z" fill="#242424"/>
<path d="M354.609 292.713C354.879 293.446 354.637 294.21 354.068 294.42C353.496 294.631 352.814 294.21 352.544 293.474C352.273 292.742 352.515 291.978 353.084 291.767C353.656 291.557 354.335 291.981 354.609 292.713Z" fill="#242424"/>
<path d="M351.739 288.401C351.676 288.747 353.185 288.3 354.898 289.105C354.015 287.235 351.83 287.882 351.739 288.401Z" fill="#242424"/>
<path d="M344.679 292.638C345.415 292.912 342.526 293.113 341.281 296.105C340.489 294.533 342.3 291.752 344.679 292.638Z" fill="#242424"/>
<path fill-rule="evenodd" clip-rule="evenodd" d="M345.647 307.352C345.176 307.044 344.692 306.701 344.195 306.318L357.554 299.874C357.636 300.267 357.692 300.66 357.73 301.05C354.738 304.24 351.176 306.06 345.647 307.352Z" fill="white"/>
<path fill-rule="evenodd" clip-rule="evenodd" d="M355.517 308.037C353.726 309.691 350.919 310.143 347.269 308.292C348.196 307.575 349.784 307.104 351.582 307.104C353.157 307.104 354.568 307.465 355.517 308.037Z" fill="#A42424"/>
<path fill-rule="evenodd" clip-rule="evenodd" d="M384.194 241.685L386.687 238.085L387.202 238.444L384.461 242.404C384.744 243.395 384.892 244.85 384.901 246.459C385.087 246.629 385.263 246.767 385.429 246.881L389.179 239.384L389.739 239.663L385.986 247.173C386.29 247.286 386.564 247.308 386.812 247.267C387.362 247.176 387.89 246.767 388.434 246.104C388.959 245.469 389.456 244.655 389.974 243.8L390.025 243.718C390.559 242.844 391.116 241.939 391.735 241.207L392.213 241.612C391.634 242.301 391.1 243.165 390.562 244.045C390.543 244.08 390.521 244.111 390.499 244.146C389.99 244.985 389.472 245.834 388.921 246.503C388.595 246.899 388.239 247.255 387.85 247.509C388.393 248.147 388.818 248.367 389.151 248.386C389.516 248.405 389.89 248.191 390.32 247.701C390.745 247.217 391.166 246.525 391.628 245.736C391.7 245.617 391.769 245.494 391.842 245.372C392.238 244.69 392.662 243.96 393.127 243.275L393.649 243.63C393.193 244.294 392.785 245.001 392.389 245.683C392.316 245.809 392.244 245.931 392.172 246.054C391.713 246.837 391.263 247.578 390.792 248.116C390.327 248.647 389.776 249.049 389.116 249.015C388.5 248.98 387.897 248.565 387.271 247.795C387.155 247.836 387.035 247.864 386.913 247.886C386.111 248.018 385.272 247.682 384.37 246.821L384.272 246.726V246.591C384.272 244.715 384.074 243.112 383.741 242.222C383.66 242.002 383.575 241.842 383.493 241.735C383.411 241.628 383.351 241.6 383.32 241.59C383.301 241.587 383.257 241.581 383.169 241.641C383.075 241.703 382.952 241.829 382.805 242.049C382.698 242.21 382.503 242.48 382.261 242.816C382.198 242.907 382.129 243.002 382.056 243.099C381.72 243.571 381.315 244.136 380.919 244.721C380.519 245.309 380.133 245.909 379.825 246.45C379.513 246.997 379.303 247.453 379.237 247.758L378.621 247.622C378.712 247.22 378.967 246.692 379.278 246.139C379.598 245.579 379.994 244.963 380.397 244.369C380.799 243.775 381.208 243.203 381.547 242.731C381.62 242.628 381.692 242.53 381.758 242.439C381.997 242.106 382.182 241.848 382.283 241.7C382.449 241.449 382.629 241.248 382.817 241.122C383.012 240.99 383.235 240.927 383.465 240.98C383.688 241.034 383.861 241.182 383.993 241.351C384.065 241.452 384.131 241.562 384.194 241.685ZM350.947 295.91C350.359 295.102 350.007 293.93 350.167 292.145L350.796 292.201C350.642 293.873 350.978 294.882 351.456 295.539C351.937 296.203 352.597 296.548 353.194 296.844C353.22 296.856 353.248 296.869 353.273 296.882C353.537 297.01 353.801 297.139 354.005 297.287C354.238 297.454 354.452 297.683 354.486 298.023C354.518 298.343 354.379 298.68 354.131 299.044C353.876 299.415 353.474 299.861 352.899 300.418L352.465 299.965C353.028 299.421 353.392 299.006 353.612 298.689C353.832 298.365 353.87 298.183 353.861 298.085C353.851 298.007 353.807 297.919 353.641 297.799C353.48 297.683 353.263 297.579 352.984 297.441C352.962 297.432 352.94 297.419 352.918 297.406C352.317 297.111 351.528 296.709 350.947 295.91Z" fill="#C66C55"/>
<path fill-rule="evenodd" clip-rule="evenodd" d="M359.434 319.875C359.566 319.328 359.569 318.753 359.358 318.19C359.145 317.612 358.723 317.071 358.051 316.593L357.686 317.103C358.277 317.527 358.607 317.97 358.771 318.407C358.931 318.844 358.931 319.3 358.818 319.759C358.629 320.507 358.136 321.249 357.564 321.871C356.995 322.49 356.379 322.959 355.989 323.172C355.178 323.616 354.716 324.59 354.455 325.533C354.185 326.495 354.097 327.513 354.097 328.164H354.725C354.725 327.557 354.81 326.596 355.058 325.703C355.316 324.791 355.718 324.037 356.291 323.726C356.753 323.471 357.422 322.956 358.029 322.295C358.29 322.009 358.544 321.692 358.767 321.349L358.651 325.873L364.658 338.515L365.224 338.245L359.286 325.741L359.434 319.875ZM338.741 324.229C337.321 323.487 335.881 322.886 334.554 322.66L334.661 322.038C336.085 322.283 337.591 322.918 339.03 323.672C340.376 324.373 341.677 325.187 342.815 325.895C342.9 325.948 342.982 325.998 343.063 326.052C344.277 326.806 345.254 327.4 345.892 327.62C346.05 327.677 346.169 327.702 346.257 327.705C346.345 327.711 346.373 327.693 346.376 327.693C346.38 327.689 346.38 327.689 346.386 327.683C346.389 327.674 346.398 327.658 346.405 327.627C346.42 327.557 346.427 327.444 346.398 327.268C346.332 326.822 346.389 326.269 346.574 325.769C346.76 325.269 347.087 324.782 347.602 324.527C348.13 324.266 348.784 324.282 349.539 324.665C350.284 325.046 351.145 325.791 352.141 327.023L351.651 327.419C350.683 326.218 349.884 325.549 349.253 325.225C348.627 324.908 348.187 324.939 347.882 325.09C347.562 325.25 347.316 325.577 347.162 325.986C347.011 326.394 346.971 326.841 347.021 327.174C347.081 327.579 347.052 327.997 346.725 328.214C346.568 328.318 346.389 328.343 346.222 328.334C346.056 328.324 345.874 328.28 345.688 328.214C344.965 327.966 343.915 327.322 342.733 326.583C342.652 326.533 342.57 326.482 342.488 326.432C341.344 325.719 340.062 324.92 338.741 324.229ZM329.327 346.059C328.673 343.752 327.944 341.181 327.693 337.933L328.321 337.883C328.566 341.064 329.274 343.56 329.924 345.861C330.103 346.49 330.276 347.103 330.437 347.712C331.178 350.548 331.584 353.248 330.506 356.706L329.909 356.517C330.933 353.22 330.556 350.655 329.827 347.87C329.673 347.279 329.503 346.678 329.327 346.059ZM332.879 354.889C332.775 350.598 332.565 341.938 332.565 341.68H333.193C333.193 341.926 333.404 350.573 333.508 354.876L332.879 354.889ZM358.29 355.432L366.305 348.36L366.72 348.831L358.705 355.904L358.29 355.432ZM366.007 355.498L363.178 360.999L362.618 360.71L365.447 355.209L366.007 355.498ZM359.726 394.605C359.789 393.853 359.799 393.294 359.758 392.954L360.38 392.879C360.43 393.288 360.415 393.901 360.352 394.655C360.289 395.416 360.176 396.34 360.025 397.377C359.723 399.455 359.264 401.998 358.73 404.619C357.655 409.862 356.262 415.461 355.178 418.331L354.587 418.111C355.656 415.291 357.039 409.734 358.114 404.494C358.648 401.878 359.104 399.348 359.406 397.289C359.553 396.258 359.663 395.346 359.726 394.605ZM359.758 417.067C360.125 414.964 360.889 410.532 361.015 409.539L361.637 409.614C361.512 410.633 360.745 415.083 360.38 417.174L359.758 417.067Z" fill="#BB3F2A"/>
<path d="M640.297 558.256C640.548 558.256 648.573 555.741 652.556 554.484C651.456 561.085 646.584 564.7 640.297 558.256Z" fill="#983D3C"/>
<path d="M488.946 313.39C488.317 316.534 460.627 315.276 461.441 313.39C464.572 306.139 468.922 305.303 478.573 306.161C483.621 308.232 489.257 311.841 488.946 313.39Z" fill="#242424"/>
<path d="M450.283 318.734C456.374 319.143 456.098 316.534 455.783 312.762C448.164 302.398 444.074 304.042 436.923 312.447C435.789 314.528 435.98 318.734 439.124 318.734C442.739 318.734 444.782 318.891 450.283 318.734Z" fill="#242424"/>
<path d="M479.358 303.017C483.294 267.532 484.073 240.151 481.244 212.961C470.258 198.479 439.642 206.599 438.181 212.804C435.616 239.607 436.917 257.332 436.766 286.515C434.252 299.717 435.037 316.707 437.552 313.39C447.925 299.717 453.426 314.572 455.941 313.39C458.612 312.133 456.711 300.317 456.255 289.501C461.96 281.643 458.927 265.14 461.284 255.553C462.699 268.598 461.731 281.976 461.756 298.774C458.298 307.575 461.334 314.333 461.913 312.604C464.17 305.859 474.172 307.732 479.358 307.732C482.03 307.261 481.873 304.589 479.358 303.017Z" fill="#FB6248"/>
<path d="M441.324 106.245C440.287 108.806 442.55 111.689 444.625 115.832C455.236 117.507 476.526 104.202 472.286 97.2862C465.056 85.4987 441.796 90.8423 444.625 103.101C443.524 104.044 441.324 105.993 441.324 106.245Z" fill="#1E2B4E"/>
<path d="M337.122 149.151C348.281 135.949 357.554 115.832 368.713 111.431L440.852 130.92C403.447 142.393 401.885 163.453 395.588 177.756C371.856 231.664 308.518 201.173 282.743 171.312C306.176 176.438 321.978 167.068 337.122 149.151Z" fill="#F2B750"/>
<path d="M485.959 165.339C487.974 158.154 488.153 154.649 488.317 148.68C480.773 143.807 485.183 143.562 485.174 141.764C485.164 139.935 486.013 139.039 486.745 138.778C490.058 130.989 497.747 136.597 499.319 139.25C501.833 143.493 496.876 149.78 496.961 151.351C497.433 159.996 496.332 174.068 492.56 176.812C487.374 180.584 485.076 168.483 485.959 165.339Z" fill="#B25C5E"/>
<path fill-rule="evenodd" clip-rule="evenodd" d="M483.602 143.735C484.997 142.685 485.667 142.063 485.331 140.52L369.813 108.131C367.927 107.659 366.827 110.803 367.927 111.746L483.602 143.735Z" fill="#536CAF"/>
<path d="M546.94 161.253C547.569 161.253 547.726 157.953 546.94 157.795L498.376 144.178C497.275 143.65 496.945 144.697 496.332 145.222V143.493C495.704 145.222 493.73 145.694 493.73 142.802C492.403 144.908 490.674 144.436 490.674 141.922C490.674 140.35 489.574 140.35 488.644 141.45C488.942 143.075 488.622 143.374 487.845 143.65C487.845 144.037 488.644 145.065 489.417 145.345L546.94 161.253Z" fill="#536CAF"/>
<path d="M454.997 134.063C455.412 131.247 455.296 129.741 454.683 127.148C458.232 127.509 460.071 128.349 463.17 130.606C461.598 133.906 465.213 137.992 463.642 139.25C462.497 140.164 457.302 135.949 454.997 134.063Z" fill="#B25C5E"/>
<path fill-rule="evenodd" clip-rule="evenodd" d="M458.043 127.786C459.75 128.317 461.209 129.175 463.17 130.605C462.755 131.479 462.702 132.41 462.821 133.328C460.527 133.488 457.126 130.756 455.004 128.669C454.928 128.242 454.834 127.795 454.721 127.311L458.043 127.786Z" fill="#983D3C"/>
<path d="M452.483 132.177L450.754 135.32L436.452 140.35C430.951 141.921 418.063 173.669 418.063 176.812C421.364 179.327 431.58 180.113 436.138 178.384L435.666 197.873C434.415 201.72 437.238 206.517 435.666 207.146C434.88 207.46 433.472 209.503 434.094 210.603C438.809 218.933 459.084 218.933 464.113 216.576C467.058 215.196 466.769 213.002 468.357 209.032L470.871 216.89C473.858 214.69 483.64 214.847 482.973 212.175C479.336 197.568 479.516 186.088 480.034 172.883C482.464 174.43 488.317 177.441 488.946 176.812C486.381 170.183 486.299 167.684 487.06 161.253L480.179 146.165C478.365 142.195 466.314 140.821 465.999 134.535C465.999 133.277 463.485 133.277 462.856 133.592C462.991 134.403 463.246 136.119 463.013 137.049C462.51 139.061 460.709 136.21 459.87 134.535C457.113 133.29 453.269 131.077 452.483 132.177Z" fill="white"/>
<path d="M435.195 177.284C433.466 174.769 426.135 172.855 422.621 174.612C421.678 175.084 419.717 179.013 419.164 181.37C418.535 184.042 430.322 196.144 440.381 199.13C442.11 199.916 443.053 201.645 444.31 203.217C446.825 206.36 449.968 204.474 449.968 201.959C449.968 200.576 451.54 198.241 452.326 197.244C454.84 194.101 451.854 190.417 447.768 188.286C445.369 187.035 443.367 191.115 442.581 193.001L432.523 180.585C434.314 179.802 435.594 177.862 435.195 177.284Z" fill="#B25C5E"/>
<path d="M453.111 102.63C453.124 105.201 452.291 105.641 450.282 105.773V115.675C446.265 111.261 444.467 113.487 444.624 115.36C445.027 120.154 447.611 122.433 449.497 121.961C451.854 127.786 461.756 132.334 465.056 130.92C475.986 126.236 471.525 113.955 471.971 101.215C468.671 104.201 458.612 103.258 453.111 102.63Z" fill="#B25C5E"/>
<path d="M469.3 112.846C469.3 113.713 468.806 114.417 468.2 114.417C467.593 114.417 467.099 113.713 467.099 112.846C467.099 111.978 467.593 111.274 468.2 111.274C468.806 111.274 469.3 111.978 469.3 112.846Z" fill="#242424"/>
<path d="M458.612 113.16C458.612 114.028 458.119 114.732 457.512 114.732C456.906 114.732 456.412 114.028 456.412 113.16C456.412 112.292 456.906 111.588 457.512 111.588C458.119 111.588 458.612 112.292 458.612 113.16Z" fill="#242424"/>
<path fill-rule="evenodd" clip-rule="evenodd" d="M465.22 113.704C464.943 112.421 464.899 110.812 465.377 108.69L465.993 108.828C465.528 110.872 465.581 112.387 465.836 113.569C466.081 114.707 466.515 115.552 466.898 116.297C466.914 116.328 466.93 116.363 466.945 116.394C467.332 117.143 467.69 117.859 467.587 118.655C467.483 119.459 466.923 120.261 465.729 121.257L465.326 120.773C466.49 119.805 466.892 119.132 466.964 118.573C467.04 118.004 466.788 117.463 466.389 116.681C466.37 116.646 466.351 116.611 466.332 116.574C465.952 115.832 465.484 114.923 465.22 113.704ZM446.665 115.345C446.668 115.332 446.671 115.316 446.674 115.304L447.29 115.417C447.123 116.35 447.01 116.995 447.199 117.693C447.391 118.387 447.897 119.176 449.085 120.321L448.651 120.773C447.432 119.601 446.828 118.717 446.592 117.859C446.363 117.014 446.504 116.234 446.665 115.345ZM492.975 136.644C493.327 136.308 493.692 135.959 494.063 135.575L494.515 136.012C494.135 136.405 493.761 136.763 493.409 137.1C493.378 137.131 493.346 137.159 493.315 137.191C492.997 137.493 492.699 137.775 492.425 138.055C491.809 138.684 491.331 139.275 491.045 139.96C490.762 140.639 490.655 141.437 490.828 142.5L490.206 142.6C490.027 141.488 490.121 140.598 490.426 139.815L488.49 141.519L488.336 141.082C487.968 140.051 487.336 139.58 486.827 139.52C486.575 139.492 486.333 139.555 486.132 139.718C485.925 139.881 485.739 140.161 485.636 140.579L485.026 140.425C485.158 139.9 485.403 139.492 485.739 139.225C486.076 138.954 486.484 138.844 486.899 138.891C487.622 138.976 488.311 139.529 488.754 140.447L491.985 137.603C492.265 137.317 492.567 137.03 492.878 136.732C492.909 136.704 492.944 136.675 492.975 136.644ZM494.17 140.089C494.723 139.096 495.603 138.266 496.757 137.282L497.165 137.76C496.009 138.747 495.21 139.514 494.717 140.397C494.233 141.268 494.028 142.28 494.132 143.785L493.503 143.83C493.396 142.242 493.607 141.098 494.17 140.089ZM496.282 141.654C496.747 140.623 497.618 139.721 498.797 138.696L499.212 139.171C498.036 140.19 497.26 141.016 496.857 141.912C496.461 142.789 496.414 143.77 496.791 145.137L496.188 145.307C495.779 143.842 495.811 142.704 496.282 141.654Z" fill="#983D3C"/>
<path fill-rule="evenodd" clip-rule="evenodd" d="M450.628 199.875C449.167 197.757 448.095 196.685 446.074 195.11L445.687 195.606C447.755 197.219 448.786 198.272 450.32 200.542C450.411 200.321 450.515 200.098 450.628 199.875ZM449.795 202.965C447.991 200.504 446.215 199.382 444.15 198.228L443.842 198.778C445.945 199.954 447.683 201.06 449.478 203.603C449.607 203.405 449.714 203.191 449.795 202.965ZM446.485 192.315C448.664 193.856 449.94 194.956 452.266 197.159L452.7 196.704C450.358 194.487 449.06 193.365 446.85 191.803L446.485 192.315Z" fill="#983D3C"/>
<path d="M465.996 134.478C465.924 134.642 465.855 134.799 465.789 134.95C465.154 136.374 464.729 137.332 464.742 139.096L465.371 139.089C465.358 137.631 465.66 136.801 466.178 135.616C466.081 135.27 466.018 134.912 465.999 134.532C465.999 134.516 465.996 134.497 465.996 134.478Z" fill="#4B4B4B"/>
<path d="M480.452 146.762L480.176 170.824L479.987 173.33L480.018 173.333C480.025 173.182 480.028 173.034 480.034 172.883C480.22 173 480.418 173.125 480.625 173.257L480.801 170.9C482.455 165.773 483.514 163.023 486.299 159.521L486.006 158.883C483.382 162.121 482.212 164.704 480.826 168.806L481.065 148.101L480.452 146.762Z" fill="#4B4B4B"/>
<path d="M436.119 179.142C436.48 179.069 436.791 178.859 437.055 178.557C437.385 178.183 437.656 177.655 437.885 177.02C438.344 175.75 438.668 173.958 438.922 171.865C439.259 169.089 439.476 165.726 439.699 162.24C439.815 160.464 439.932 158.653 440.067 156.874L439.438 156.827C439.303 158.625 439.187 160.445 439.07 162.224C438.847 165.698 438.633 169.03 438.3 171.786C438.046 173.873 437.728 175.602 437.294 176.803C437.077 177.403 436.838 177.85 436.584 178.139C436.436 178.309 436.285 178.419 436.134 178.478L436.119 179.142Z" fill="#4B4B4B"/>
<path d="M450.587 135.38L450.54 135.632C451.314 135.773 452.241 136.396 453.231 137.21C453.665 137.565 454.102 137.948 454.532 138.329L454.693 138.47C455.174 138.891 455.651 139.306 456.101 139.655C456.55 140.004 456.987 140.303 457.396 140.485C457.798 140.667 458.229 140.758 458.622 140.611C459.024 140.457 459.294 140.086 459.461 139.564C459.628 139.042 459.713 138.319 459.713 137.364H459.084C459.084 138.294 459.002 138.942 458.864 139.372C458.726 139.803 458.549 139.966 458.399 140.023C458.235 140.086 457.999 140.067 457.654 139.913C457.314 139.762 456.924 139.498 456.487 139.162C456.054 138.825 455.592 138.423 455.108 137.999L454.947 137.857C454.517 137.48 454.073 137.09 453.63 136.726C452.697 135.959 451.71 135.261 450.795 135.044L450.754 135.324L450.587 135.38Z" fill="#4B4B4B"/>
<path d="M464.27 142.236C464.289 158.477 465.188 170.416 466.505 187.896C466.694 190.423 466.895 193.067 467.099 195.855L467.728 195.808C467.521 193.02 467.323 190.376 467.131 187.849C465.817 170.369 464.918 158.452 464.899 142.236H464.27Z" fill="#4B4B4B"/>
<path d="M431.558 156.167C433.126 157.261 434.255 158.223 435.198 159.48C436.141 160.741 436.908 162.319 437.728 164.657L438.319 164.45C437.492 162.083 436.697 160.439 435.701 159.106C434.701 157.77 433.513 156.764 431.916 155.652L431.558 156.167Z" fill="#4B4B4B"/>
<path fill-rule="evenodd" clip-rule="evenodd" d="M469.325 219.442C469.325 219.442 469.325 219.442 469.614 219.562C469.903 219.681 469.903 219.681 469.903 219.681L469.894 219.706L469.865 219.779C469.84 219.842 469.803 219.933 469.752 220.052C469.652 220.291 469.507 220.634 469.322 221.064C468.954 221.926 468.432 223.133 467.816 224.506C466.581 227.254 464.968 230.683 463.444 233.389L462.897 233.081C464.406 230.397 466.012 226.99 467.241 224.249C467.857 222.878 468.379 221.677 468.743 220.816C468.929 220.385 469.073 220.043 469.171 219.807C469.221 219.688 469.259 219.596 469.284 219.537L469.325 219.442ZM461.844 243.489C462.469 238.702 463.334 234.65 464.292 232.179L464.877 232.405C463.95 234.807 463.092 238.796 462.466 243.571C461.841 248.339 461.451 253.865 461.441 259.325H460.813C460.822 253.837 461.215 248.282 461.844 243.489ZM477.281 302.071C473.257 301.606 470.192 302.382 467.75 304.061L467.392 303.542C469.979 301.763 473.204 300.968 477.35 301.446L477.281 302.071ZM445.979 304.099C444.276 303.791 442.537 303.844 440.262 304.114L440.186 303.489C442.487 303.215 444.298 303.156 446.092 303.476C447.887 303.8 449.644 304.501 451.851 305.727L451.543 306.277C449.374 305.073 447.683 304.404 445.979 304.099Z" fill="#174029"/>
<path d="M456.884 121.961L468.2 122.433C466.785 129.977 461.441 128.72 456.884 121.961Z" fill="#983D3C"/>
<path fill-rule="evenodd" clip-rule="evenodd" d="M467.819 123.979L458.207 123.744C457.76 123.2 457.32 122.606 456.884 121.958L468.2 122.43C468.093 122.999 467.967 123.511 467.819 123.979Z" fill="white"/>
<path fill-rule="evenodd" clip-rule="evenodd" d="M464.729 127.516C463.17 127.833 461.294 126.944 459.404 125.067C460.093 124.715 461.253 124.753 462.416 125.234C463.727 125.777 464.638 126.711 464.729 127.516Z" fill="#A42424"/>
<path d="M467.728 106.559C467.571 106.873 469.143 106.873 470.557 108.131C470.243 106.087 467.964 106.087 467.728 106.559Z" fill="#242424"/>
<path d="M460.341 106.873C460.97 107.345 458.141 106.716 456.098 109.231C455.783 107.502 458.311 105.349 460.341 106.873Z" fill="#242424"/>
<path d="M515.349 549.926C517.707 549.926 516.44 544.903 515.349 541.753C506.369 538.796 501.77 538.676 493.975 539.867C492.089 544.268 482.206 550.24 482.03 551.183C481.244 555.427 509.377 549.926 515.349 549.926Z" fill="#536CAF"/>
<path d="M562.814 467.728C562.864 455.598 562.594 449.072 559.042 440.224L516.45 442.11L489.103 477.315C482.967 486.396 492.403 507.491 492.718 541.596C499.953 538.777 510.32 543.489 514.249 542.854C519.122 542.068 514.227 539.396 514.249 537.981C514.432 526.983 509.949 513.778 510.792 510.634C512.725 503.424 510.949 491.932 510.163 490.36L532.952 465.842L542.225 520.222C542.225 529.809 544.227 551.589 547.097 562.657C545.403 565.819 547.449 569.258 548.355 568C553.195 561.267 568.158 562.814 571.93 567.057C574.306 569.729 576.016 561.399 571.301 556.213C570.638 530.095 564.389 493.346 565.171 488.788C566.114 483.287 562.814 473.7 562.814 467.728Z" fill="white"/>
<path d="M549.527 577.43C557.313 579.788 573.187 575.544 572.715 569.258C572.278 563.442 551.444 562.657 548.512 570.201C547.493 572.822 548.32 577.066 549.527 577.43Z" fill="#1E2B4E"/>
<path d="M485.645 555.741C482.344 555.741 481.244 552.284 482.03 551.341L516.45 548.826C516.843 555.81 499.054 553.726 485.645 555.741Z" fill="#1E2B4E"/>
<path d="M560.928 335.079C562.974 339.141 560.881 341.247 556.842 344.981C544.664 349.127 539.603 344.623 529.652 339.166L529.966 327.064C529.966 323.606 534.995 322.82 534.995 321.72C535.363 314.915 549.769 317.188 556.842 318.734C561.871 319.834 566.272 334.136 560.928 335.079Z" fill="#242424"/>
<path d="M512.049 333.822C512.322 338.848 515.349 342.152 516.45 346.71L508.434 354.568C507.177 349.853 504.483 346.314 501.362 340.895C497.59 334.765 498.061 313.862 497.432 298.145C495.267 294.508 494.289 291.387 494.446 288.558C493.975 286.358 494.761 285.1 496.332 285.415C496.175 284 496.999 283.192 498.69 283.843C498.929 282.111 499.362 281.555 501.047 281.8C501.258 280.401 503.109 279.838 504.191 280.543C505.536 281.419 506.237 284.003 507.491 286.358C510.125 291.302 508.371 293.298 504.819 296.731C507.334 306.475 511.741 328.164 512.049 333.822Z" fill="#FEAD98"/>
<path d="M550.24 363.841C553.469 361.191 546.626 356.611 545.368 358.654L535.467 358.497C532.506 356.79 530.494 356.344 526.823 355.668C524.519 351.274 521.95 346.442 520.222 345.924C510.034 342.875 507.884 353.311 506.391 356.297C504.662 359.755 512.253 368.88 517.393 377.829C516.016 403.83 512.206 440.224 515.349 442.11C528.316 449.89 550.083 450.44 559.828 440.695C562.185 438.338 559.438 422.879 558.57 410.991L564.543 401.247C569.305 397.443 571.794 396.541 576.487 396.689C577.446 392.725 566.52 380.972 565.643 374.843C565.171 371.542 558.363 367.635 550.24 363.841Z" fill="#1E2B4E"/>
<path d="M545.683 361.012V352.525L535.153 354.725C535.699 359.553 535.171 362.043 534.052 364.784L536.41 367.77L537.353 364.784L545.683 361.012Z" fill="#FEAD98"/>
<path fill-rule="evenodd" clip-rule="evenodd" d="M535.171 354.907L536.488 354.445L545.683 352.525V354.32C540.506 357.611 537.309 359.261 535.366 357.733C535.347 356.885 535.288 355.951 535.171 354.907Z" fill="#C66C55"/>
<path d="M554.327 332.093C544.425 332.565 538.767 329.579 535.938 325.021C535.646 324.549 531.824 327.221 531.852 327.85C532.072 332.668 529.774 337.123 528.552 340.423C525.955 347.429 532.166 353.738 534.367 355.04C537.824 357.083 547.883 352.682 549.769 350.953C560.928 351.582 558.57 335.079 551.812 345.295C551.655 341.209 557.313 331.952 554.327 332.093Z" fill="#FEAD98"/>
<path d="M532.481 345.924H546.154C543.482 352.053 536.253 356.925 532.481 345.924Z" fill="#C66C55"/>
<path d="M545.268 339.436C545.045 340.184 544.457 340.668 543.957 340.517C543.457 340.366 543.237 339.64 543.463 338.892C543.69 338.144 544.278 337.66 544.774 337.811C545.274 337.962 545.494 338.688 545.268 339.436Z" fill="#242424"/>
<path d="M535.2 336.638C534.951 337.377 534.348 337.842 533.854 337.676C533.361 337.506 533.163 336.77 533.414 336.032C533.666 335.293 534.269 334.828 534.763 334.994C535.256 335.164 535.451 335.9 535.2 336.638Z" fill="#242424"/>
<path fill-rule="evenodd" clip-rule="evenodd" d="M529.884 360.786C529.812 360.855 529.806 360.892 529.806 360.892C529.586 362.763 529.435 364.209 529.359 365.268C529.322 365.799 529.303 366.227 529.303 366.563C529.3 366.748 529.306 366.899 529.315 367.022C529.52 366.692 529.796 366.113 530.148 365.29L530.158 365.268L530.17 365.249C530.343 364.966 530.544 364.749 530.777 364.617C531.016 364.482 531.271 364.447 531.525 364.498C532.003 364.595 532.446 364.994 532.845 365.466C533.537 366.289 534.254 367.553 534.926 368.741C535.043 368.942 535.156 369.147 535.269 369.342L534.722 369.656C534.606 369.452 534.489 369.244 534.373 369.04C533.697 367.849 533.015 366.648 532.364 365.871C531.975 365.409 531.651 365.167 531.399 365.114C531.286 365.092 531.189 365.104 531.085 365.164C530.978 365.224 530.852 365.343 530.717 365.557C530.331 366.465 530.01 367.132 529.759 367.493C529.693 367.585 529.623 367.669 529.551 367.735C529.485 367.795 529.375 367.874 529.231 367.883C529.054 367.893 528.929 367.795 528.856 367.695C528.794 367.603 528.759 367.493 528.737 367.396C528.69 367.195 528.671 366.912 528.674 366.563C528.674 366.205 528.693 365.761 528.731 365.224C528.809 364.149 528.96 362.69 529.183 360.817C529.205 360.622 529.315 360.462 529.441 360.339C529.567 360.213 529.73 360.103 529.913 360C530.28 359.795 530.777 359.607 531.34 359.428C532.465 359.072 533.908 358.758 535.25 358.503L535.369 359.12C534.033 359.374 532.616 359.685 531.528 360.028C530.981 360.201 530.532 360.377 530.218 360.55C530.06 360.638 529.953 360.716 529.884 360.786ZM529.12 367.277C529.12 367.277 529.12 367.276 529.124 367.273C529.12 367.276 529.12 367.277 529.12 367.277ZM533.804 364.976C532.839 363.737 532.531 362.888 532.025 361.43L532.619 361.222C533.122 362.668 533.402 363.435 534.301 364.592L533.804 364.976ZM519.744 362.649C518.527 368.185 518.245 371.614 518.021 377.998L517.393 377.976C517.619 371.573 517.902 368.1 519.128 362.517L519.744 362.649ZM549.973 363.608L542.564 369.914L542.539 369.929C542.385 370.014 542.225 370.024 542.074 369.977C541.936 369.933 541.82 369.848 541.725 369.76C541.537 369.584 541.348 369.317 541.166 369.043C541.09 368.927 541.012 368.804 540.933 368.685C540.628 368.207 540.311 367.717 539.959 367.364C539.742 367.148 539.541 367.012 539.352 366.965C539.176 366.918 538.984 366.937 538.752 367.091C538.51 367.248 538.224 367.559 537.9 368.1C537.576 368.634 537.23 369.383 536.862 370.392L536.272 370.178C536.649 369.144 537.01 368.358 537.359 367.776C537.708 367.195 538.054 366.799 538.409 366.563C538.777 366.324 539.148 366.264 539.509 366.355C539.852 366.444 540.15 366.664 540.405 366.918C540.811 367.324 541.175 367.893 541.483 368.374C541.556 368.487 541.625 368.597 541.691 368.697C541.876 368.974 542.027 369.178 542.153 369.298C542.19 369.335 542.219 369.354 542.238 369.367L549.565 363.13L549.973 363.608ZM558.885 399.392C558.137 391.537 558.882 387.878 560.626 381.673L561.23 381.843C559.501 387.994 558.772 391.574 559.513 399.332L558.885 399.392ZM562.921 386.13C563.178 385.483 563.496 384.939 563.883 384.65L564.26 385.153C564.018 385.335 563.754 385.737 563.505 386.363C563.26 386.973 563.046 387.749 562.88 388.613C562.54 390.342 562.386 392.398 562.5 394.155L561.871 394.193C561.755 392.379 561.915 390.27 562.261 388.491C562.437 387.601 562.66 386.787 562.921 386.13ZM523.23 409.246C522.956 408.416 522.815 407.697 522.897 407.172L523.519 407.266C523.462 407.634 523.557 408.234 523.827 409.048C524.094 409.853 524.512 410.821 525.059 411.909C526.153 414.081 527.747 416.693 529.589 419.318C531.431 421.945 533.518 424.579 535.605 426.799C537.699 429.024 539.773 430.816 541.587 431.775L541.291 432.328C539.387 431.322 537.259 429.474 535.149 427.229C533.037 424.985 530.928 422.326 529.073 419.679C527.219 417.035 525.609 414.398 524.5 412.192C523.943 411.088 523.51 410.089 523.23 409.246Z" fill="#536CAF"/>
<path d="M575.23 413.505C580.954 411.217 577.587 398.103 576.487 396.689C570.386 396.481 568.117 397.955 564.543 401.246L545.683 391.345C546.468 389.302 538.755 381.739 537.038 382.544C533.788 384.065 529.652 388.516 530.437 391.345C528.866 392.288 529.702 394.416 531.066 395.746C532.974 397.607 536.055 398.6 535.781 395.117C536.14 396.205 536.671 396.535 538.139 396.689C538.139 397.946 539.553 398.889 541.282 398.103L558.885 411.619C562.5 415.077 571.301 415.077 575.23 413.505Z" fill="#FEAD98"/>
<path d="M548.983 574.287C561.821 575.356 574.916 573.03 572.558 567.057C569.886 559.513 551.602 559.513 548.669 567.057C547.65 569.679 547.726 574.183 548.983 574.287Z" fill="#536CAF"/>
<path d="M543.797 334.451C543.589 335.233 545.683 333.608 547.883 336.965C548.354 334.451 544.425 332.093 543.797 334.451Z" fill="#242424"/>
<path d="M537.196 332.543C537.196 333.329 535.152 331.622 532.952 332.722C533.191 330.98 537.196 330.364 537.196 332.543Z" fill="#242424"/>
<path fill-rule="evenodd" clip-rule="evenodd" d="M536.925 338.308C537.271 337.66 537.466 336.733 537.202 335.293L537.818 335.18C538.104 336.726 537.906 337.805 537.482 338.603C537.073 339.37 536.473 339.848 536.001 340.222C535.985 340.234 535.973 340.244 535.957 340.256C535.712 340.451 535.52 340.608 535.385 340.769C535.256 340.92 535.196 341.052 535.193 341.19C535.19 341.338 535.244 341.548 535.442 341.853C535.64 342.161 535.967 342.542 536.47 343.026L536.036 343.478C535.517 342.979 535.149 342.56 534.914 342.196C534.678 341.831 534.558 341.495 534.565 341.174C534.574 340.844 534.719 340.58 534.904 340.36C535.086 340.146 535.332 339.952 535.564 339.766C535.574 339.76 535.58 339.753 535.586 339.747C536.067 339.364 536.58 338.958 536.925 338.308ZM554.075 345.553C554.044 345.515 553.978 345.465 553.827 345.452L553.884 344.824C554.163 344.852 554.405 344.959 554.566 345.163C554.726 345.361 554.776 345.61 554.77 345.848C554.764 346.32 554.537 346.883 554.223 347.404C553.902 347.932 553.459 348.457 552.969 348.853C552.485 349.243 551.916 349.539 551.341 349.539V348.91C551.708 348.91 552.142 348.715 552.576 348.363C553.003 348.017 553.396 347.552 553.686 347.077C553.978 346.597 554.138 346.147 554.141 345.836C554.145 345.688 554.113 345.6 554.075 345.553Z" fill="#C66C55"/>
<path fill-rule="evenodd" clip-rule="evenodd" d="M507.397 286.178C507.428 286.238 507.46 286.298 507.491 286.358C507.576 286.515 507.655 286.669 507.727 286.82C507.237 286.804 506.718 286.776 506.206 286.751L506.108 286.744C505.423 286.71 504.75 286.675 504.15 286.669C503.543 286.659 503.024 286.678 502.644 286.741C502.456 286.773 502.317 286.81 502.223 286.854C502.141 286.892 502.126 286.92 502.122 286.923C501.978 287.276 502.05 287.7 502.415 288.055C502.782 288.417 503.461 288.715 504.505 288.715H504.995L504.791 289.162L503.062 292.934L502.49 292.673L504.024 289.325C503.386 289.272 502.858 289.105 502.443 288.863C502.047 289.237 501.626 289.479 501.183 289.586C501.095 290.249 500.815 290.761 500.365 291.098C499.869 291.466 499.212 291.579 498.508 291.494C497.269 291.346 495.785 290.582 494.431 289.306C494.427 289.055 494.434 288.806 494.446 288.558C494.434 288.505 494.424 288.451 494.415 288.401C495.826 289.894 497.389 290.727 498.583 290.871C499.183 290.944 499.661 290.837 499.991 290.595C500.252 290.4 500.453 290.095 500.538 289.639C500.199 289.611 499.859 289.495 499.526 289.322C499.061 289.083 498.592 288.721 498.133 288.288C497.322 287.514 496.524 286.477 495.842 285.371C495.996 285.368 496.159 285.383 496.332 285.418C496.313 285.251 496.31 285.091 496.317 284.943C496.992 286.053 497.778 287.084 498.567 287.832C498.998 288.241 499.419 288.561 499.815 288.762C500.211 288.967 500.557 289.045 500.852 289.007C501.205 288.963 501.569 288.8 501.94 288.47C501.575 288.096 501.399 287.634 501.428 287.178L498.429 283.752C498.514 283.777 498.602 283.808 498.69 283.843C498.721 283.614 498.756 283.406 498.797 283.217L501.663 286.493C501.745 286.402 501.852 286.333 501.956 286.285C502.126 286.207 502.327 286.156 502.544 286.119C502.83 286.072 503.172 286.05 503.546 286.04L500.642 281.753C500.768 281.762 500.903 281.778 501.047 281.797C501.069 281.655 501.107 281.52 501.16 281.394L504.294 286.021L504.269 286.037C504.854 286.046 505.498 286.081 506.14 286.112L506.234 286.119C506.627 286.141 507.017 286.163 507.397 286.178ZM499.564 298.453C500.268 298.614 500.856 298.661 501.478 298.576C502.094 298.494 502.726 298.29 503.524 297.966L503.285 297.384C502.506 297.702 501.931 297.884 501.396 297.957C500.865 298.026 500.356 297.988 499.702 297.843L499.564 298.453Z" fill="#C66C55"/>
<path fill-rule="evenodd" clip-rule="evenodd" d="M533.301 347.967C533.015 347.357 532.738 346.678 532.481 345.924H546.154C545.846 346.628 545.478 347.316 545.063 347.967H533.301Z" fill="white"/>
<path fill-rule="evenodd" clip-rule="evenodd" d="M544.476 348.816C542.329 351.686 539.239 353.474 536.473 351.868C536.859 350.912 538.151 349.828 539.874 349.121C541.763 348.344 543.599 348.256 544.476 348.816Z" fill="#A42424"/>
<path fill-rule="evenodd" clip-rule="evenodd" d="M528.834 450.855C528.746 450.078 528.655 449.273 528.555 448.434L529.177 448.359C529.284 449.22 529.375 450.04 529.463 450.82C529.715 453.077 529.931 455.007 530.324 456.616C530.849 458.769 531.676 460.272 533.263 461.168L532.955 461.715C531.148 460.696 530.258 458.996 529.715 456.764C529.309 455.114 529.089 453.124 528.834 450.855ZM523.56 459.508C523.296 459.294 523.085 459.109 522.969 458.974L523.447 458.565C523.519 458.65 523.689 458.804 523.953 459.018C524.211 459.225 524.547 459.477 524.934 459.763C525.713 460.329 526.706 461.017 527.75 461.715C529.84 463.11 532.11 464.528 533.248 465.088L532.971 465.653C532.503 465.421 531.861 465.059 531.126 464.616L531.164 464.726C529.375 465.308 527.388 465.82 525.496 466.298C525.32 466.342 525.147 466.386 524.971 466.43C523.271 466.857 521.674 467.26 520.382 467.665C519.675 467.888 519.065 468.111 518.593 468.332C518.109 468.561 517.801 468.772 517.65 468.96C517.578 469.048 517.556 469.117 517.55 469.171C517.547 469.218 517.556 469.284 517.61 469.372C517.732 469.567 518.037 469.818 518.634 470.12C519.153 470.378 519.892 470.485 520.816 470.447C521.734 470.412 522.799 470.236 523.956 469.966C526.263 469.422 528.878 468.504 531.267 467.593L531.494 468.177C529.098 469.095 526.449 470.026 524.097 470.579C522.922 470.852 521.812 471.038 520.841 471.076C519.873 471.113 519.012 471.01 518.351 470.68C517.732 470.372 517.295 470.054 517.078 469.705C516.962 469.523 516.905 469.322 516.924 469.114C516.943 468.907 517.034 468.724 517.16 468.567C517.405 468.262 517.823 467.998 518.326 467.763C518.835 467.524 519.474 467.294 520.197 467.065C521.504 466.656 523.12 466.247 524.814 465.82C524.99 465.776 525.166 465.732 525.342 465.688C527.087 465.248 528.894 464.783 530.548 464.264C529.561 463.654 528.454 462.941 527.401 462.237C526.351 461.536 525.352 460.844 524.566 460.269C524.17 459.983 523.827 459.722 523.56 459.508ZM502.015 484.979L502.556 484.671L507.689 491.463L509.949 489.345L510.377 489.804L507.607 492.4L503.443 486.887C504.14 488.763 504.54 490.168 504.672 491.146C504.76 491.79 504.741 492.318 504.555 492.67C504.455 492.862 504.304 493.007 504.1 493.079C503.905 493.148 503.694 493.139 503.49 493.085C503.094 492.985 502.628 492.702 502.122 492.303C501.61 491.897 501.025 491.344 500.384 490.668C499.102 489.316 497.577 487.449 495.924 485.202L496.43 484.831C498.074 487.063 499.583 488.911 500.84 490.237C501.469 490.901 502.031 491.429 502.512 491.809C503.003 492.196 503.38 492.409 503.647 492.475C503.773 492.51 503.848 492.501 503.892 492.485C503.924 492.472 503.961 492.45 503.999 492.378C504.087 492.211 504.134 491.859 504.049 491.231C503.883 489.999 503.248 487.965 502.015 484.979ZM560.51 543.344C552.136 530.912 549.282 524.035 546.789 511.955L547.405 511.829C549.879 523.821 552.699 530.62 561.032 542.992L560.51 543.344ZM508.752 538.258C509.553 538.318 510.392 538.381 511.288 538.453L511.238 539.082C510.352 539.006 509.515 538.946 508.717 538.887C503.864 538.528 500.425 538.274 495.889 536.224L496.147 535.652C500.576 537.651 503.902 537.9 508.752 538.258ZM564.778 557.533C564.631 557.577 564.458 557.608 564.257 557.627C560.265 557.97 557.382 558.3 555.345 558.878C553.318 559.457 552.193 560.265 551.627 561.528L551.055 561.27C551.727 559.768 553.06 558.875 555.172 558.275C557.278 557.674 560.221 557.344 564.2 556.999C564.373 556.986 564.502 556.961 564.59 556.933C564.618 556.923 564.64 556.914 564.659 556.904C564.656 556.901 564.653 556.895 564.65 556.892C564.558 556.782 564.36 556.634 564.037 556.467C563.722 556.307 563.311 556.137 562.817 555.983C560.84 555.364 557.637 554.962 554.239 555.735L554.101 555.122C557.618 554.321 560.937 554.732 563.006 555.383C563.524 555.546 563.971 555.726 564.326 555.908C564.672 556.087 564.958 556.282 565.13 556.486C565.215 556.587 565.294 556.716 565.313 556.87C565.335 557.036 565.278 557.194 565.165 557.31C565.061 557.42 564.92 557.486 564.778 557.533Z" fill="#4B4B4B"/>
<path fill-rule="evenodd" clip-rule="evenodd" d="M541.609 398.355C541.798 397.302 542.461 396.695 543.988 395.522L543.605 395.026C542.112 396.17 541.241 396.909 540.996 398.219C541.09 398.185 541.185 398.147 541.282 398.103L541.609 398.355ZM538.167 396.994C538.393 396.472 538.815 395.956 539.352 395.456C539.93 394.919 540.622 394.419 541.301 393.963L540.949 393.442C540.26 393.904 539.537 394.425 538.925 394.994C538.393 395.488 537.928 396.032 537.645 396.623C537.796 396.648 537.96 396.67 538.139 396.689C538.139 396.792 538.148 396.896 538.167 396.994ZM535.787 395.136L535.923 395.148L535.938 394.818C536.042 392.744 537.563 390.968 539.358 390.22L539.119 389.641C537.243 390.421 535.605 392.231 535.341 394.432C534.829 394.287 534.43 393.926 534.175 393.467C533.87 392.91 533.788 392.235 533.967 391.681C534.426 390.251 535.721 388.362 537.403 386.866L536.988 386.394C535.278 387.912 533.923 389.849 533.399 391.402C533.285 391.483 533.128 391.534 532.924 391.546C532.682 391.562 532.396 391.524 532.085 391.433C531.469 391.254 530.815 390.892 530.343 390.49C530.331 390.785 530.362 391.072 530.438 391.345C530.887 391.64 531.406 391.889 531.909 392.036C532.264 392.14 532.628 392.197 532.965 392.175C533.059 392.169 533.156 392.156 533.251 392.134C533.216 392.697 533.351 393.275 533.625 393.772C534.011 394.466 534.684 395.026 535.593 395.117L535.781 395.136C535.781 395.13 535.781 395.123 535.781 395.117C535.784 395.123 535.784 395.13 535.787 395.136ZM564.505 401.228L569.559 404.497L569.899 403.969L565.02 400.813C564.863 400.954 564.703 401.099 564.543 401.246L564.505 401.228Z" fill="#C66C55"/>
<path fill-rule="evenodd" clip-rule="evenodd" d="M652.003 556.713L641.171 559.095C640.882 558.838 640.592 558.558 640.297 558.256C640.548 558.256 648.573 555.741 652.556 554.484C652.424 555.273 652.239 556.021 652.003 556.713Z" fill="white"/>
<path fill-rule="evenodd" clip-rule="evenodd" d="M651.626 557.681C650.258 560.752 647.775 562.405 644.625 561.283C645.263 560.403 646.348 559.498 647.709 558.787C649.111 558.055 650.522 557.681 651.626 557.681Z" fill="#A42424"/>
<path d="M646.112 543.639C646.207 544.444 647.7 543.218 650.984 545.525C650.494 543.014 645.826 541.216 646.112 543.639Z" fill="#242424"/>
<path d="M639.826 544.74C640.115 545.469 638.062 544.152 636.421 545.988C636.003 544.281 639.021 542.715 639.826 544.74Z" fill="#242424"/>
<path fill-rule="evenodd" clip-rule="evenodd" d="M694.812 494.311C694.828 494.456 694.834 494.603 694.834 494.761C694.834 495.226 694.771 495.679 694.686 496.115C694.45 496.502 694.189 496.829 693.903 497.115C693.259 497.75 692.505 498.149 691.656 498.508L691.411 497.929C692.231 497.583 692.901 497.219 693.46 496.669C693.998 496.137 694.45 495.411 694.812 494.311ZM692.505 492.312C692.502 492.438 692.492 492.573 692.476 492.717C692.684 492.655 692.876 492.617 693.055 492.604C692.662 493.796 692.187 494.72 691.53 495.556C690.858 496.411 690.006 497.159 688.893 497.998L688.516 497.495C689.613 496.672 690.414 495.961 691.037 495.169C691.656 494.377 692.109 493.494 692.492 492.306L692.505 492.312ZM689.754 490.989C689.773 491.039 689.789 491.092 689.805 491.146C689.911 491.089 690.012 491.036 690.116 490.989H690.119C690.119 491.705 689.999 492.494 689.723 493.293C689.173 494.886 687.991 496.515 685.872 497.706C685.319 498.017 684.574 498.071 683.782 498.036C683.131 498.005 682.399 497.91 681.644 497.813C681.472 497.788 681.295 497.766 681.123 497.744L681.063 497.737C681.198 497.476 681.299 497.178 681.318 496.804C681.321 496.735 681.327 496.662 681.33 496.593C681.883 495.738 682.367 494.996 682.858 494.434C683.48 493.717 684.159 493.242 685.071 493.189L686.385 493.095L686.661 490.175L686.746 490.181C686.778 490.329 686.8 490.495 686.818 490.674C686.979 490.53 687.136 490.401 687.284 490.294L687.02 493.048L689.195 492.89C689.402 492.227 689.49 491.58 689.49 490.989H689.754ZM623.845 496.757C624.037 497.099 624.257 497.379 624.524 497.565C623.766 497.448 622.911 497.112 622.119 496.722C621.255 496.298 620.434 495.798 619.85 495.408C619.56 495.216 619.318 495.075 619.124 495C618.916 494.918 618.841 494.94 618.822 494.946C618.819 494.949 618.746 494.987 618.709 495.248C618.674 495.499 618.683 495.883 618.762 496.445C618.797 496.706 618.951 496.964 619.202 497.25C619.372 497.445 619.567 497.631 619.771 497.822C619.865 497.917 619.966 498.011 620.067 498.108C620.362 498.401 620.664 498.728 620.827 499.105C621.003 499.501 621.019 499.941 620.771 500.409C620.635 500.664 620.375 500.915 620.101 501.148C619.957 501.274 619.784 501.415 619.604 501.56C619.457 501.679 619.306 501.802 619.168 501.918C618.844 502.191 618.536 502.471 618.291 502.764C618.045 503.059 617.879 503.345 617.816 503.631L617.2 503.493C617.297 503.075 617.53 502.694 617.81 502.361C618.089 502.025 618.429 501.717 618.762 501.437C618.926 501.299 619.08 501.176 619.224 501.06C619.388 500.925 619.542 500.802 619.692 500.673C619.969 500.434 620.145 500.252 620.217 500.114C620.368 499.825 620.356 499.589 620.252 499.356C620.139 499.102 619.916 498.844 619.626 498.558C619.542 498.476 619.454 498.391 619.362 498.303C619.18 498.13 618.985 497.945 618.812 497.759C618.41 497.929 617.998 497.769 617.662 497.511C617.294 497.228 616.942 496.772 616.628 496.235C616.115 495.361 615.675 494.214 615.44 493.073C615.647 493.092 615.867 493.132 616.093 493.189C616.097 493.183 616.1 493.173 616.103 493.167C616.332 494.163 616.725 495.157 617.172 495.917C617.464 496.423 617.769 496.801 618.045 497.014C618.181 497.118 618.287 497.168 618.379 497.19C618.259 496.989 618.171 496.769 618.14 496.533C618.058 495.949 618.039 495.496 618.086 495.16C618.133 494.83 618.256 494.531 618.536 494.387C618.787 494.258 619.07 494.308 619.306 494.396C619.124 493.994 618.932 493.544 618.756 493.095C618.605 492.699 618.46 492.293 618.35 491.916C618.658 492.057 618.957 492.284 619.221 492.545C619.262 492.651 619.3 492.758 619.344 492.868C619.645 493.648 620.004 494.427 620.265 494.93C620.83 495.301 621.594 495.766 622.396 496.159C622.886 496.398 623.38 496.609 623.845 496.757ZM613.198 495.059C613.409 495.047 613.629 495.053 613.862 495.072C614.509 497.077 615.499 498.696 616.618 499.715L616.197 500.18C614.937 499.036 613.871 497.238 613.198 495.059ZM685.112 493.818L688.956 493.538C688.393 494.846 687.34 496.159 685.564 497.159C685.174 497.376 684.587 497.442 683.81 497.407C683.188 497.379 682.49 497.288 681.739 497.19L681.698 497.184C681.748 497.106 681.798 497.027 681.849 496.952C682.408 496.087 682.867 495.38 683.329 494.846C683.895 494.195 684.429 493.855 685.108 493.818H685.112Z" fill="#983D3C"/>
<path fill-rule="evenodd" clip-rule="evenodd" d="M641.011 550.866C641.724 549.599 642.529 548.166 641.734 546.11L642.318 545.884C643.227 548.229 642.274 549.914 641.557 551.177C641.482 551.312 641.407 551.444 641.341 551.57C640.97 552.249 640.794 552.724 640.932 553.148C641.07 553.579 641.57 554.082 642.934 554.666L642.689 555.245C641.303 554.651 640.564 554.053 640.335 553.343C640.102 552.629 640.429 551.925 640.787 551.268C640.86 551.136 640.935 551.004 641.011 550.866ZM661.414 552.353C661.835 551.58 661.955 550.523 661.681 549.37L662.291 549.225C662.593 550.492 662.476 551.715 661.967 552.655C661.452 553.601 660.546 554.239 659.336 554.327L659.292 553.698C660.282 553.629 660.999 553.12 661.414 552.353Z" fill="#983D3C"/>
<path d="M648.47 548.669C648.47 549.624 647.976 550.398 647.37 550.398C646.763 550.398 646.269 549.624 646.269 548.669C646.269 547.713 646.763 546.94 647.37 546.94C647.976 546.94 648.47 547.713 648.47 548.669Z" fill="#242424"/>
<path d="M639.983 548.355C639.983 549.137 639.561 549.769 639.04 549.769C638.518 549.769 638.097 549.137 638.097 548.355C638.097 547.572 638.518 546.94 639.04 546.94C639.561 546.94 639.983 547.572 639.983 548.355Z" fill="#242424"/>
<path fill-rule="evenodd" clip-rule="evenodd" d="M655.863 566.196C656.042 565.897 656.073 565.665 656.02 565.388L656.636 565.269C656.721 565.703 656.658 566.095 656.4 566.52C656.155 566.925 655.737 567.362 655.124 567.919L654.703 567.453C655.31 566.9 655.668 566.514 655.863 566.196ZM657.551 571.75C657.356 572.137 657.271 572.404 657.271 572.558C657.271 573.265 657.296 573.903 657.315 574.466C657.324 574.714 657.334 574.947 657.34 575.161C657.35 575.51 657.353 575.821 657.334 576.076C657.318 576.314 657.28 576.557 657.177 576.736C657.12 576.833 657.035 576.927 656.906 576.981C656.774 577.031 656.645 577.022 656.532 576.99C656.325 576.927 656.111 576.764 655.888 576.556C655.432 576.129 654.788 575.349 653.882 574.171C653.505 573.727 653.2 573.463 652.955 573.331C652.723 573.206 652.562 573.209 652.43 573.265C652.276 573.331 652.1 573.495 651.899 573.803C651.698 574.111 651.497 574.523 651.273 575.041L650.695 574.79C650.921 574.268 651.141 573.812 651.371 573.46C651.597 573.115 651.858 572.825 652.185 572.687C652.531 572.539 652.892 572.583 653.254 572.778C653.603 572.967 653.967 573.3 654.367 573.768L654.373 573.775L654.376 573.781C655.288 574.969 655.904 575.711 656.319 576.098C656.479 576.252 656.589 576.327 656.655 576.365C656.677 576.302 656.696 576.195 656.705 576.032C656.721 575.808 656.721 575.525 656.711 575.18C656.705 574.972 656.699 574.746 656.689 574.504C656.667 573.938 656.642 573.275 656.642 572.558C656.642 572.241 656.793 571.857 656.991 571.464C657.199 571.062 657.485 570.6 657.812 570.113C658.23 569.49 658.72 568.808 659.207 568.139C659.478 567.761 659.748 567.391 659.999 567.032L660.515 567.397C660.254 567.765 659.977 568.145 659.704 568.522C659.226 569.185 658.745 569.849 658.333 570.462C658.013 570.942 657.742 571.379 657.551 571.75ZM643.11 569.233C643.123 569.198 643.139 569.167 643.151 569.135L643.73 569.38C643.72 569.405 643.707 569.431 643.698 569.456C643.286 570.414 642.444 572.376 642.315 574.394C642.365 574.29 642.412 574.186 642.46 574.086C642.507 573.985 642.554 573.888 642.598 573.79C642.862 573.231 643.113 572.706 643.362 572.319C643.487 572.124 643.62 571.948 643.764 571.816C643.906 571.687 644.082 571.574 644.298 571.559C644.525 571.546 644.72 571.643 644.88 571.797C645.034 571.945 645.169 572.159 645.295 572.423L645.304 572.439L647.039 577.487L646.442 577.691L644.72 572.678C644.613 572.454 644.518 572.322 644.443 572.25C644.374 572.184 644.342 572.187 644.339 572.187C644.327 572.187 644.276 572.197 644.188 572.278C644.104 572.36 644.003 572.483 643.893 572.659C643.67 573.005 643.431 573.492 643.167 574.058C643.123 574.152 643.079 574.249 643.032 574.347C642.809 574.828 642.566 575.346 642.306 575.846L641.828 576.764L641.715 575.736C641.429 573.143 642.614 570.383 643.11 569.233ZM667.37 622.83C656.312 618.404 650.516 614.666 640.574 606.912L640.96 606.415C650.871 614.144 656.614 617.847 667.603 622.245L667.37 622.83ZM651.877 624.04C655.41 625.262 659.459 626.215 662.137 626.152L662.149 626.781C659.358 626.847 655.225 625.863 651.673 624.634C649.894 624.015 648.243 623.332 646.967 622.675C646.332 622.349 645.782 622.028 645.351 621.72C644.93 621.418 644.594 621.11 644.424 620.805L644.971 620.497C645.072 620.676 645.314 620.918 645.716 621.208C646.112 621.49 646.634 621.798 647.256 622.116C648.498 622.754 650.117 623.427 651.877 624.04Z" fill="#F2B750"/>
<path fill-rule="evenodd" clip-rule="evenodd" d="M649.199 647.41C651.374 648.074 654.134 649.259 655.709 650.246L655.376 650.78C653.86 649.828 651.154 648.665 649.013 648.011C647.935 647.684 647.046 647.498 646.53 647.514C646.405 647.517 646.32 647.533 646.266 647.552C646.254 647.555 646.247 647.558 646.241 647.561C646.241 647.564 646.241 647.568 646.244 647.571C646.254 647.618 646.288 647.7 646.37 647.819C647.181 648.995 648.636 649.843 650.318 650.412C651.993 650.975 653.848 651.248 655.394 651.299L655.69 651.308L655.857 657.419L655.228 657.438L655.08 651.915C653.546 651.839 651.754 651.56 650.117 651.006C648.382 650.422 646.772 649.516 645.854 648.177C645.748 648.023 645.669 647.869 645.631 647.722C645.594 647.564 645.6 647.395 645.691 647.241C645.779 647.09 645.92 647.005 646.056 646.958C646.194 646.911 646.348 646.889 646.508 646.885C647.14 646.867 648.118 647.08 649.199 647.41ZM632.285 684.301C632.621 684.571 633.127 684.895 633.847 685.284C633.991 685.363 634.117 685.451 634.215 685.558C634.309 685.665 634.388 685.803 634.391 685.97C634.394 686.136 634.322 686.275 634.23 686.381C634.142 686.485 634.023 686.573 633.894 686.645C633.391 686.935 632.467 687.158 631.276 687.306C628.868 687.604 625.187 687.604 621.076 686.972L621.17 686.35C625.231 686.976 628.855 686.972 631.2 686.683C632.382 686.535 633.196 686.319 633.583 686.102C633.671 686.051 633.721 686.007 633.746 685.979C633.718 685.945 633.655 685.897 633.545 685.838C632.813 685.442 632.269 685.093 631.889 684.788C631.527 684.492 631.266 684.197 631.194 683.892C631.153 683.722 631.169 683.556 631.247 683.405C631.32 683.26 631.439 683.15 631.568 683.068C631.819 682.908 632.172 682.807 632.558 682.738C633.347 682.594 634.425 682.556 635.529 682.55C636.138 682.547 636.78 682.556 637.386 682.562C637.864 682.569 638.32 682.575 638.725 682.575V683.204C638.295 683.204 637.836 683.197 637.361 683.191C636.767 683.185 636.151 683.175 635.532 683.178C634.428 683.185 633.397 683.222 632.671 683.354C632.304 683.424 632.049 683.508 631.907 683.6C631.838 683.644 631.813 683.675 631.807 683.691C631.801 683.7 631.797 683.713 631.804 683.744C631.826 683.835 631.939 684.018 632.285 684.301ZM676.458 743.958C672.164 729.433 670.398 721.719 669.216 709.322L669.844 709.262C671.017 721.606 672.771 729.278 677.061 743.782L676.458 743.958ZM680.874 730.643L676.788 721.841L677.36 721.577L681.446 730.379L680.874 730.643ZM623.87 736.373C621.305 733.371 620.296 731.378 619.092 727.459L619.696 727.276C620.874 731.124 621.846 733.038 624.348 735.964L623.87 736.373Z" fill="#536CAF"/>
</g>
<defs>
<linearGradient id="paint0_linear_140_1004" x1="554.897" y1="312.168" x2="478.351" y2="763.359" gradientUnits="userSpaceOnUse">
<stop stop-color="#1F6640"/>
<stop offset="1" stop-color="white"/>
</linearGradient>
<linearGradient id="paint1_linear_140_1004" x1="500.353" y1="301.446" x2="500.353" y2="582.879" gradientUnits="userSpaceOnUse">
<stop stop-color="#7CCA9E"/>
<stop offset="1" stop-color="#A1C8B2" stop-opacity="0"/>
</linearGradient>
<linearGradient id="paint2_linear_140_1004" x1="282.661" y1="502.937" x2="204.085" y2="826.754" gradientUnits="userSpaceOnUse">
<stop stop-color="#1F6640"/>
<stop offset="1" stop-color="white"/>
</linearGradient>
<linearGradient id="paint3_linear_140_1004" x1="292.153" y1="493.308" x2="292.153" y2="664.762" gradientUnits="userSpaceOnUse">
<stop stop-color="#7CCA9E"/>
<stop offset="1" stop-color="#A1C8B2" stop-opacity="0"/>
</linearGradient>
<linearGradient id="paint4_linear_140_1004" x1="556.817" y1="556.822" x2="504.323" y2="882.314" gradientUnits="userSpaceOnUse">
<stop stop-color="#1F6640"/>
<stop offset="1" stop-color="white"/>
</linearGradient>
<linearGradient id="paint5_linear_140_1004" x1="508.962" y1="549.297" x2="508.962" y2="759.008" gradientUnits="userSpaceOnUse">
<stop stop-color="#7CCA9E"/>
<stop offset="1" stop-color="#A1C8B2" stop-opacity="0"/>
</linearGradient>
<linearGradient id="paint6_linear_140_1004" x1="654.916" y1="745.589" x2="666.122" y2="921.421" gradientUnits="userSpaceOnUse">
<stop stop-color="#278251"/>
<stop offset="1" stop-color="white"/>
</linearGradient>
<linearGradient id="paint7_linear_140_1004" x1="689.83" y1="744.786" x2="689.83" y2="917.037" gradientUnits="userSpaceOnUse">
<stop stop-color="#7CCA9E"/>
<stop offset="1" stop-color="#A1C8B2" stop-opacity="0"/>
</linearGradient>
<clipPath id="clip0_140_1004">
<rect width="943" height="943" fill="white"/>
</clipPath>
</defs>
</svg>
